<svg width="14" height="14" viewBox="0 0 14 14" fill="none" xmlns="http://www.w3.org/2000/svg">
  <ellipse cx="7.2624" cy="7.01657" rx="6.29414" ry="6.32858" fill="#FF493E"/>
  <path
    d="M9.57105 3.29028H10.6516V10.257H9.52079L9.38258 9.40555C8.72921 10.085 7.9125 10.4248 6.93244 10.4248C5.91888 10.4248 5.07285 10.0764 4.39435 9.37975C3.72422 8.68307 3.38916 7.81438 3.38916 6.77366C3.38916 5.72435 3.72422 4.85565 4.39435 4.16757C5.07285 3.4709 5.91888 3.12256 6.93244 3.12256C7.92925 3.12256 8.75434 3.4666 9.40771 4.15467L9.57105 3.29028ZM5.43723 8.41214C5.86443 8.84219 6.39634 9.05721 7.03296 9.05721C7.67795 9.05721 8.20568 8.84219 8.61613 8.41214C9.03495 7.97349 9.24437 7.42733 9.24437 6.77366C9.24437 6.11139 9.03495 5.56523 8.61613 5.13518C8.20568 4.70513 7.67795 4.49011 7.03296 4.49011C6.61413 4.49011 6.233 4.58902 5.88956 4.78684C5.5545 4.98466 5.29064 5.25989 5.09798 5.61253C4.90532 5.95657 4.80898 6.34361 4.80898 6.77366C4.80898 7.42733 5.0184 7.97349 5.43723 8.41214Z"
    fill="#FAFCFE"/>
  <path d="M0.726247 1.90479L0 3.12182L7.26247 7.01633L0.726247 1.90479Z" fill="#FAFCFE"/>
  <path d="M2.31104 4.36019L7.26207 7.01674L2.6633 3.42139L2.31104 4.36019Z" fill="#FAFCFE"/>
</svg>
