<svg width="26" height="24" viewBox="0 0 26 24" fill="none" xmlns="http://www.w3.org/2000/svg">
<path fill-rule="evenodd" clip-rule="evenodd" d="M13.9282 24C20.5952 24 25.9999 18.6274 25.9999 12C25.9999 5.37258 20.5952 0 13.9282 0C10.0552 0 6.60827 1.81301 4.39932 4.63182L1.39289 2.30738L0 4.61508L3.27484 6.35128C2.36965 8.03471 1.85645 9.95778 1.85645 12C1.85645 18.6274 7.26114 24 13.9282 24ZM7.15497 8.40838L3.27484 6.35128C3.60075 5.74519 3.97746 5.17017 4.39932 4.63182L7.8325 7.2862C7.83216 7.28666 7.83181 7.28711 7.83147 7.28756L10.0054 8.96784C10.0056 8.96748 10.0059 8.96712 10.0061 8.96675L13.9289 11.9997L13.9257 11.998L13.928 11.9998L12.1161 11.0386L9.59386 9.70139C9.59395 9.70118 9.59404 9.70097 9.59414 9.70076L7.15555 8.40715C7.15536 8.40756 7.15516 8.40797 7.15497 8.40838ZM7.15497 8.40838L9.59386 9.70139C9.34668 10.2592 9.22309 10.8716 9.22309 11.5386C9.22309 12.778 9.62473 13.8136 10.428 14.6454C11.2474 15.4608 12.2675 15.8685 13.4885 15.8685C14.7256 15.8685 15.7377 15.4608 16.5249 14.6454C17.3282 13.8136 17.7299 12.778 17.7299 11.5386C17.7299 10.2828 17.3282 9.24717 16.5249 8.43173C15.7377 7.61629 14.7256 7.20857 13.4885 7.20857C12.6852 7.20857 11.9543 7.39613 11.2956 7.77123C10.7767 8.07407 10.3469 8.47257 10.0061 8.96675L7.8325 7.2862C8.01267 7.04673 8.21112 6.81699 8.42784 6.597C9.72916 5.27598 11.3518 4.61548 13.2957 4.61548C15.2075 4.61548 16.79 5.26783 18.0431 6.57253L18.3564 4.9335H20.4289V18.1436H18.26L17.9949 16.529C16.7418 17.8174 15.1754 18.4616 13.2957 18.4616C11.3518 18.4616 9.72916 17.8011 8.42784 16.4801C7.14259 15.1591 6.49996 13.5119 6.49996 11.5386C6.49996 10.3788 6.7183 9.33541 7.15497 8.40838Z" fill="#FF493E"/>
</svg>
