<svg width="60" height="16" viewBox="0 0 60 16" fill="none" xmlns="http://www.w3.org/2000/svg">
<path d="M9.74453 7.83644C9.75091 7.34159 9.88235 6.8564 10.1266 6.42601C10.3709 5.99561 10.7201 5.634 11.1417 5.37481C10.8738 4.99232 10.5205 4.67754 10.1098 4.45548C9.69901 4.23342 9.24214 4.1102 8.77543 4.09559C7.77986 3.99109 6.8147 4.69132 6.30738 4.69132C5.79024 4.69132 5.00914 4.10597 4.16802 4.12327C3.62396 4.14085 3.09373 4.29906 2.62899 4.58249C2.16426 4.86591 1.78086 5.26489 1.51617 5.74054C0.369559 7.72571 1.22482 10.6432 2.32318 12.2479C2.87271 13.0337 3.51495 13.9114 4.35531 13.8803C5.17765 13.8461 5.48478 13.3559 6.47742 13.3559C7.46085 13.3559 7.749 13.8802 8.60641 13.8605C9.48882 13.8461 10.0448 13.0712 10.575 12.278C10.9699 11.7181 11.2737 11.0993 11.4753 10.4446C10.9626 10.2277 10.5251 9.86479 10.2173 9.40099C9.90957 8.9372 9.74513 8.39306 9.74453 7.83644Z" fill="white"/>
<path d="M8.12498 3.04018C8.6061 2.4626 8.84314 1.72023 8.78574 0.970703C8.05068 1.04791 7.37169 1.39922 6.88407 1.95463C6.64565 2.22597 6.46305 2.54163 6.3467 2.88358C6.23035 3.22553 6.18254 3.58706 6.206 3.94749C6.57366 3.95128 6.93739 3.87159 7.26978 3.71443C7.60218 3.55727 7.89459 3.32673 8.12498 3.04018Z" fill="white"/>
<path d="M20.1395 11.8909H17.3333L16.6593 13.8808H15.4707L18.1288 6.51855H19.3637L22.0218 13.8808H20.8129L20.1395 11.8909ZM17.6239 10.9726H19.8483L18.7518 7.74309H18.7211L17.6239 10.9726Z" fill="white"/>
<path d="M27.7622 11.1973C27.7622 12.8653 26.8695 13.937 25.5222 13.937C25.1809 13.9549 24.8415 13.8763 24.5428 13.7102C24.2441 13.5441 23.9983 13.2973 23.8333 12.9979H23.8078V15.6566H22.7061V8.51321H23.7725V9.40598H23.7928C23.9653 9.10809 24.2153 8.86253 24.5163 8.69543C24.8172 8.52833 25.1579 8.44595 25.5019 8.45704C26.8642 8.45705 27.7622 9.53394 27.7622 11.1973ZM26.6298 11.1973C26.6298 10.1106 26.0682 9.39614 25.2113 9.39614C24.3695 9.39614 23.8032 10.1256 23.8032 11.1973C23.8032 12.2788 24.3695 13.0031 25.2113 13.0031C26.0682 13.0031 26.6298 12.2939 26.6298 11.1973Z" fill="white"/>
<path d="M33.6702 11.1973C33.6702 12.8653 32.7774 13.937 31.4302 13.937C31.0889 13.9549 30.7495 13.8763 30.4508 13.7102C30.1521 13.5441 29.9062 13.2972 29.7413 12.9979H29.7158V15.6566H28.614V8.5132H29.6805V9.40598H29.7007C29.8732 9.10808 30.1233 8.86252 30.4242 8.69543C30.7252 8.52833 31.0658 8.44595 31.4099 8.45704C32.7722 8.45704 33.6702 9.53393 33.6702 11.1973ZM32.5377 11.1973C32.5377 10.1106 31.9761 9.39614 31.1192 9.39614C30.2774 9.39614 29.7112 10.1256 29.7112 11.1973C29.7112 12.2788 30.2774 13.0031 31.1192 13.0031C31.9761 13.0031 32.5377 12.2939 32.5377 11.1973Z" fill="white"/>
<path d="M37.5749 11.8297C37.6565 12.5598 38.3658 13.0391 39.335 13.0391C40.2636 13.0391 40.9318 12.5597 40.9318 11.9015C40.9318 11.33 40.5288 10.9878 39.5746 10.7533L38.6205 10.5235C37.2686 10.197 36.641 9.56472 36.641 8.53877C36.641 7.26851 37.748 6.396 39.3199 6.396C40.8756 6.396 41.9421 7.26851 41.978 8.53877H40.8657C40.7992 7.80406 40.1918 7.36057 39.3043 7.36057C38.4167 7.36057 37.8093 7.80927 37.8093 8.46235C37.8093 8.98285 38.1973 9.28913 39.1462 9.52359L39.9573 9.72276C41.4679 10.08 42.0955 10.6868 42.0955 11.7636C42.0955 13.141 40.9983 14.0037 39.2533 14.0037C37.6206 14.0037 36.5182 13.1613 36.447 11.8296L37.5749 11.8297Z" fill="white"/>
<path d="M44.4731 7.24292V8.51319H45.4939V9.3857H44.4731V12.3448C44.4731 12.8045 44.6775 13.0188 45.1262 13.0188C45.2474 13.0166 45.3684 13.0081 45.4887 12.9933V13.8606C45.2869 13.8983 45.0819 13.9153 44.8767 13.9115C43.79 13.9115 43.3661 13.5033 43.3661 12.4623V9.3857H42.5857V8.51319H43.3661V7.24292H44.4731Z" fill="white"/>
<path d="M46.0852 11.1974C46.0852 9.50852 47.0799 8.44727 48.6309 8.44727C50.1872 8.44727 51.1773 9.5085 51.1773 11.1974C51.1773 12.8909 50.1924 13.9475 48.6309 13.9475C47.07 13.9475 46.0852 12.8909 46.0852 11.1974ZM50.0546 11.1974C50.0546 10.0389 49.5237 9.35509 48.6309 9.35509C47.7382 9.35509 47.2078 10.0441 47.2078 11.1974C47.2078 12.3605 47.7382 13.0391 48.6309 13.0391C49.5237 13.0391 50.0546 12.3605 50.0546 11.1974Z" fill="white"/>
<path d="M52.0857 8.5134H53.1365V9.42701H53.162C53.2331 9.14167 53.4003 8.88951 53.6354 8.7129C53.8705 8.53629 54.1593 8.44601 54.4531 8.45723C54.5801 8.45679 54.7067 8.47058 54.8306 8.49834V9.52891C54.6703 9.47993 54.5031 9.45744 54.3356 9.46233C54.1755 9.45584 54.0159 9.48406 53.8678 9.54506C53.7197 9.60606 53.5865 9.69839 53.4775 9.81571C53.3684 9.93303 53.286 10.0726 53.2359 10.2247C53.1859 10.3769 53.1694 10.5381 53.1875 10.6973V13.881H52.0857L52.0857 8.5134Z" fill="white"/>
<path d="M59.9103 12.3044C59.7621 13.2788 58.8132 13.9475 57.599 13.9475C56.0376 13.9475 55.0684 12.9013 55.0684 11.2229C55.0684 9.53921 56.0428 8.44727 57.5527 8.44727C59.0378 8.44727 59.9717 9.46741 59.9717 11.0949V11.4724H56.1806V11.539C56.1631 11.7365 56.1878 11.9355 56.2531 12.1228C56.3184 12.31 56.4229 12.4812 56.5594 12.625C56.696 12.7688 56.8616 12.8819 57.0452 12.9568C57.2289 13.0317 57.4263 13.0667 57.6245 13.0594C57.8849 13.0838 58.1462 13.0235 58.3695 12.8874C58.5929 12.7514 58.7663 12.5469 58.8641 12.3044L59.9103 12.3044ZM56.1858 10.7024H58.8693C58.8792 10.5247 58.8523 10.347 58.7902 10.1803C58.7282 10.0136 58.6323 9.86146 58.5087 9.73354C58.3851 9.60562 58.2363 9.50463 58.0718 9.43692C57.9073 9.3692 57.7306 9.33622 57.5527 9.34004C57.3733 9.33897 57.1955 9.37344 57.0294 9.44147C56.8634 9.5095 56.7125 9.60973 56.5854 9.73639C56.4583 9.86304 56.3576 10.0136 56.289 10.1794C56.2204 10.3452 56.1853 10.5229 56.1858 10.7024Z" fill="white"/>
<path d="M16.8407 2.47255H17.3137C17.3952 2.48269 17.4778 2.47585 17.5565 2.45246C17.6351 2.42908 17.7081 2.38965 17.7707 2.33667C17.8334 2.28369 17.8844 2.21831 17.9206 2.14464C17.9567 2.07097 17.9772 1.99061 17.9807 1.90863C17.9807 1.58238 17.7352 1.37163 17.319 1.37163C17.2355 1.35998 17.1506 1.36515 17.0692 1.38686C16.9878 1.40856 16.9116 1.44635 16.8451 1.498C16.7785 1.54965 16.723 1.6141 16.6818 1.68757C16.6406 1.76103 16.6145 1.842 16.6051 1.92571H16.0857C16.0947 1.77376 16.1348 1.62527 16.2036 1.4895C16.2724 1.35373 16.3684 1.23357 16.4857 1.13652C16.603 1.03946 16.7389 0.967584 16.8852 0.925359C17.0314 0.883135 17.1848 0.871468 17.3357 0.891083C18.0322 0.891083 18.5227 1.28102 18.5227 1.84233C18.5243 2.03038 18.4614 2.21329 18.3444 2.36055C18.2274 2.5078 18.0635 2.61048 17.88 2.65145V2.69314C18.0976 2.70279 18.3025 2.79819 18.4499 2.95849C18.5974 3.11878 18.6753 3.33094 18.6668 3.54857C18.6507 3.70502 18.6035 3.85668 18.5281 3.99467C18.4526 4.13266 18.3503 4.25419 18.2273 4.35214C18.1042 4.45009 17.9628 4.52249 17.8114 4.5651C17.66 4.60771 17.5017 4.61967 17.3456 4.60027C17.1892 4.6216 17.0301 4.61121 16.8778 4.56973C16.7255 4.52826 16.5831 4.45654 16.4591 4.35885C16.3351 4.26117 16.232 4.13952 16.156 4.00116C16.0801 3.86279 16.0327 3.71054 16.0168 3.55349H16.5443C16.5761 3.8919 16.887 4.1102 17.3456 4.1102C17.8041 4.1102 18.1035 3.865 18.1035 3.51936C18.1035 3.16879 17.8215 2.95283 17.3288 2.95283H16.8407V2.47255Z" fill="white"/>
<path d="M19.2661 3.75964C19.2661 3.2791 19.6245 3.00206 20.259 2.96269L20.9822 2.921V2.69057C20.9822 2.40861 20.7963 2.2494 20.4356 2.2494C20.1415 2.2494 19.9383 2.35738 19.8792 2.54612H19.3692C19.423 2.08757 19.8549 1.79346 20.4605 1.79346C21.1298 1.79346 21.5073 2.12665 21.5073 2.69057V4.51463H20.9996V4.13945H20.9579C20.8733 4.27403 20.7544 4.38374 20.6136 4.45738C20.4727 4.53102 20.3148 4.56595 20.156 4.55861C20.0439 4.57027 19.9307 4.55831 19.8235 4.52351C19.7163 4.48871 19.6176 4.43184 19.5338 4.35656C19.4499 4.28129 19.3828 4.18928 19.3367 4.08647C19.2906 3.98365 19.2666 3.87232 19.2661 3.75964ZM20.9822 3.53153V3.30834L20.3302 3.35002C19.9626 3.37462 19.7958 3.49968 19.7958 3.73503C19.7958 3.97531 20.0043 4.11513 20.2909 4.11513C20.3749 4.12363 20.4597 4.11516 20.5403 4.0902C20.621 4.06525 20.6958 4.02433 20.7603 3.96988C20.8248 3.91543 20.8776 3.84856 20.9158 3.77326C20.9539 3.69795 20.9765 3.61574 20.9822 3.53153Z" fill="white"/>
<path d="M22.9058 2.28847V4.51461H22.3789V1.84497H24.1367V2.28844L22.9058 2.28847Z" fill="white"/>
<path d="M27.3295 3.17851C27.3295 4.0267 26.9005 4.5585 26.2265 4.5585C26.0611 4.56979 25.8959 4.53359 25.7503 4.45415C25.6048 4.37471 25.485 4.25533 25.405 4.11008H25.3633V5.40206H24.8364V1.84485H25.3436V2.28604H25.383C25.4644 2.13572 25.5858 2.01082 25.7337 1.92515C25.8817 1.83948 26.0504 1.79637 26.2213 1.80057C26.9005 1.80056 27.3295 2.33002 27.3295 3.17851ZM26.7876 3.17851C26.7876 2.61459 26.5207 2.27387 26.0743 2.27387C25.6308 2.27387 25.3535 2.62183 25.3535 3.18083C25.3535 3.73722 25.6308 4.08547 26.072 4.08547C26.5207 4.08547 26.7876 3.74474 26.7876 3.17851Z" fill="white"/>
<path d="M28.0312 5.47079V5.01716C28.0882 5.02441 28.1456 5.0277 28.2031 5.02701C28.3154 5.03532 28.4267 5.00189 28.5158 4.93313C28.6049 4.86437 28.6655 4.76512 28.686 4.65444L28.7253 4.52445L27.759 1.84497H28.3328L29.0021 3.96546H29.0438L29.7108 1.84497H30.2695L29.2742 4.62491C29.0461 5.27452 28.7937 5.48295 28.2495 5.48295C28.2054 5.48294 28.0804 5.47802 28.0312 5.47079Z" fill="white"/>
<path d="M30.6802 3.757H31.2047C31.2563 3.99237 31.4769 4.11509 31.7854 4.11509C32.1363 4.11509 32.3517 3.96051 32.3517 3.72024C32.3517 3.46289 32.1583 3.34015 31.7854 3.34015H31.3859V2.93081H31.7785C32.0969 2.93081 32.259 2.80836 32.259 2.58517C32.259 2.38919 32.1021 2.23953 31.7785 2.23953C31.4838 2.23953 31.2684 2.36459 31.2342 2.57534H30.7265C30.7645 2.33317 30.8959 2.11558 31.0927 1.96936C31.2894 1.82314 31.5357 1.75997 31.7785 1.79343C32.413 1.79343 32.7761 2.08032 32.7761 2.53133C32.779 2.65693 32.7388 2.77974 32.6621 2.87922C32.5853 2.9787 32.4768 3.04883 32.3546 3.07789V3.11957C32.5001 3.13834 32.6336 3.20988 32.7299 3.3206C32.8262 3.43133 32.8784 3.57354 32.8768 3.72025C32.8768 4.22775 32.4449 4.56353 31.7854 4.56353C31.2024 4.56351 30.7288 4.29631 30.6802 3.757Z" fill="white"/>
<path d="M33.6355 4.51461V1.84497H34.1577V3.68119H34.1994L35.4297 1.84498H35.952V4.51462H35.4297V2.66857H35.3904L34.1577 4.51463L33.6355 4.51461Z" fill="white"/>
<path d="M38.8289 2.28844H37.9882V4.51458H37.4608V2.28844H36.6201V1.84497H38.8289V2.28844Z" fill="white"/>
<path d="M41.6669 3.79386C41.5951 4.03783 41.4398 4.24883 41.2283 4.39C41.0168 4.53117 40.7623 4.59354 40.5095 4.5662C40.3336 4.57085 40.1588 4.53716 39.9973 4.46748C39.8357 4.3978 39.6912 4.2938 39.5739 4.16269C39.4566 4.03159 39.3692 3.87652 39.3178 3.70825C39.2664 3.53998 39.2522 3.36254 39.2763 3.18825C39.2529 3.01342 39.2673 2.8356 39.3185 2.66683C39.3698 2.49805 39.4568 2.34227 39.5735 2.21001C39.6902 2.07776 39.834 1.97213 39.9951 1.90027C40.1561 1.82841 40.3308 1.792 40.5072 1.7935C41.25 1.7935 41.6987 2.301 41.6987 3.13931V3.32316H39.8136V3.35269C39.8052 3.45067 39.8175 3.54933 39.8495 3.6423C39.8816 3.73528 39.9327 3.82052 39.9997 3.89255C40.0666 3.96458 40.1479 4.0218 40.2383 4.06054C40.3287 4.09928 40.4262 4.11867 40.5245 4.11749C40.6505 4.13254 40.7781 4.10981 40.8911 4.05218C41.004 3.99456 41.0973 3.90463 41.1591 3.79384L41.6669 3.79386ZM39.8136 2.9335H41.1614C41.1681 2.84395 41.1559 2.754 41.1257 2.66941C41.0956 2.58483 41.0481 2.5075 40.9862 2.44237C40.9244 2.37724 40.8496 2.32577 40.7667 2.29125C40.6838 2.25673 40.5946 2.23993 40.5048 2.24192C40.4137 2.24068 40.3232 2.25773 40.2388 2.29205C40.1543 2.32637 40.0776 2.37727 40.0132 2.44174C39.9487 2.50621 39.8979 2.58295 39.8636 2.66741C39.8293 2.75188 39.8123 2.84236 39.8136 2.9335Z" fill="white"/>
<path d="M43.9006 1.84497H45.1043C45.6266 1.84497 45.9328 2.10956 45.9328 2.5238C45.9336 2.65525 45.8893 2.78298 45.8072 2.88563C45.7251 2.98829 45.6102 3.05963 45.4818 3.08772V3.12941C45.6377 3.13926 45.7839 3.20861 45.8901 3.32315C45.9964 3.43768 46.0546 3.58865 46.0527 3.74486C46.0527 4.21064 45.7024 4.5146 45.1165 4.5146H43.9006V1.84497ZM44.4229 2.24938V2.94067H44.9451C45.2635 2.94067 45.4158 2.81822 45.4158 2.59242C45.4158 2.38428 45.2832 2.24938 45.0036 2.24938L44.4229 2.24938ZM44.4229 3.32801V4.11021H45.0476C45.3591 4.11021 45.5258 3.9727 45.5258 3.72027C45.5258 3.45308 45.3371 3.32802 44.9816 3.32802L44.4229 3.32801Z" fill="white"/>
</svg>
