<svg width="63" height="15" viewBox="0 0 63 15" fill="none" xmlns="http://www.w3.org/2000/svg">
<path d="M31.6262 8.14703C31.1689 8.1486 30.7224 8.28564 30.3429 8.54085C29.9634 8.79606 29.6681 9.15798 29.4942 9.58092C29.3202 10.0039 29.2756 10.4689 29.3657 10.9172C29.4559 11.3655 29.6769 11.7771 30.0008 12.0999C30.3247 12.4227 30.7371 12.6423 31.1857 12.7309C31.6343 12.8195 32.0992 12.7733 32.5215 12.5979C32.9438 12.4225 33.3048 12.1259 33.5587 11.7456C33.8126 11.3653 33.9481 10.9182 33.9481 10.4609C33.9527 10.1551 33.8957 9.85148 33.7806 9.56813C33.6655 9.28478 33.4945 9.0275 33.2778 8.8116C33.0612 8.59571 32.8033 8.42561 32.5196 8.31144C32.2358 8.19726 31.932 8.14135 31.6262 8.14703ZM31.6262 11.8622C30.9262 11.8622 30.3204 11.2837 30.3204 10.4609C30.3204 9.6381 30.9307 9.05849 31.6262 9.05849C32.3218 9.05849 32.9321 9.62673 32.9321 10.4609C32.9321 11.2951 32.3274 11.8622 31.6262 11.8622ZM26.5609 8.14703C26.1037 8.14882 25.6572 8.28606 25.2779 8.5414C24.8986 8.79674 24.6034 9.15875 24.4297 9.58171C24.2559 10.0047 24.2114 10.4696 24.3017 10.9179C24.392 11.3661 24.6131 11.7776 24.9371 12.1003C25.261 12.423 25.6733 12.6424 26.1219 12.731C26.5705 12.8195 27.0353 12.7732 27.4576 12.5978C27.8799 12.4224 28.2407 12.1258 28.4946 11.7455C28.7484 11.3652 28.8839 10.9182 28.8839 10.4609C28.8885 10.155 28.8315 9.85128 28.7163 9.56786C28.6011 9.28444 28.43 9.0271 28.2133 8.81119C27.9965 8.59528 27.7385 8.4252 27.4546 8.3111C27.1707 8.197 26.8668 8.1412 26.5609 8.14703ZM26.5609 11.8622C25.8608 11.8622 25.2562 11.2837 25.2562 10.4609C25.2562 9.6381 25.8608 9.05849 26.5609 9.05849C27.261 9.05849 27.8667 9.62673 27.8667 10.4609C27.8667 11.2951 27.2621 11.8622 26.5609 11.8622ZM20.5375 8.85733V9.84266H22.8855C22.8151 10.3939 22.6321 10.7973 22.3514 11.0769C22.0104 11.4178 21.4751 11.7951 20.533 11.7951C19.8637 11.7609 19.2331 11.471 18.7715 10.9852C18.3099 10.4993 18.0525 9.85479 18.0525 9.18464C18.0525 8.51449 18.3099 7.86994 18.7715 7.38412C19.2331 6.89831 19.8637 6.60835 20.533 6.57413C21.1931 6.56301 21.8309 6.81345 22.307 7.2708L23.0003 6.57981C22.6765 6.25896 22.2918 6.00602 21.8689 5.83584C21.446 5.66567 20.9933 5.58167 20.5375 5.5888C18.5578 5.5888 16.8928 7.20147 16.8928 9.18123C16.8928 11.161 18.5578 12.7737 20.5375 12.7737C21.607 12.7737 22.4127 12.4225 23.0378 11.7656C23.6856 11.1178 23.8879 10.2075 23.8879 9.47103C23.8906 9.2652 23.8727 9.05961 23.8345 8.85733H20.5375ZM45.1811 9.61537C44.9879 9.09827 44.4015 8.13793 43.2013 8.13793C42.0012 8.13793 41.0193 9.07554 41.0193 10.4518C41.0127 10.7559 41.0674 11.0582 41.1803 11.3406C41.2931 11.6231 41.4617 11.8799 41.6759 12.0958C41.8902 12.3117 42.1458 12.4821 42.4274 12.597C42.709 12.7119 43.0109 12.7689 43.315 12.7646C43.6966 12.7677 44.073 12.6759 44.4103 12.4973C44.7476 12.3188 45.0351 12.0591 45.247 11.7417L44.4583 11.2155C44.1958 11.6019 43.8366 11.8554 43.3218 11.8554C43.0862 11.8644 42.8534 11.8025 42.6534 11.6777C42.4534 11.5529 42.2955 11.3709 42.2001 11.1553L45.2925 9.87562L45.1811 9.61537ZM42.0274 10.3859C42.0179 10.2185 42.0417 10.0508 42.0974 9.89264C42.1531 9.73447 42.2397 9.58892 42.352 9.46441C42.4644 9.3399 42.6003 9.23892 42.7519 9.16729C42.9036 9.09566 43.0679 9.05482 43.2354 9.04712C43.64 9.04712 43.981 9.24828 44.0946 9.53809L42.0274 10.3859ZM39.5123 12.6293H40.5283V5.83428H39.5123V12.6293ZM37.8474 8.65958H37.8133C37.6585 8.49188 37.4698 8.35904 37.2598 8.26989C37.0497 8.18073 36.8231 8.1373 36.595 8.14248C35.438 8.14248 34.3788 9.16532 34.3788 10.4655C34.3788 11.7656 35.438 12.7691 36.595 12.7691C36.8241 12.7752 37.0517 12.7312 37.2621 12.6404C37.4725 12.5495 37.6606 12.4139 37.8133 12.2429H37.8474V12.5759C37.8474 13.4612 37.3746 13.934 36.6131 13.934C35.9903 13.934 35.6051 13.4874 35.4471 13.1112L34.5629 13.4794C34.7298 13.8843 35.0135 14.2302 35.3779 14.4731C35.7422 14.716 36.1707 14.8449 36.6086 14.8432C37.7996 14.8432 38.8077 14.142 38.8077 12.4339V8.28795H37.8428L37.8474 8.65958ZM36.6825 11.8577C35.9812 11.8577 35.3948 11.2712 35.3948 10.4655C35.3948 9.65969 35.9812 9.05394 36.6825 9.05394C37.3837 9.05394 37.9178 9.6506 37.9178 10.4655C37.9178 11.2803 37.3746 11.8577 36.6825 11.8577ZM49.9418 5.83428H47.5109V12.6327H48.5247V10.0575H49.9418C51.067 10.0575 52.1716 9.24374 52.1716 7.94587C52.1716 6.648 51.067 5.83541 49.9418 5.83541M49.968 9.1119H48.5247V6.78097H49.968C50.1241 6.77609 50.2796 6.80263 50.4253 6.85901C50.5709 6.91539 50.7038 7.00045 50.8159 7.10916C50.9281 7.21786 51.0173 7.34799 51.0781 7.49182C51.139 7.63565 51.1704 7.79025 51.1704 7.94644C51.1704 8.10263 51.139 8.25722 51.0781 8.40105C51.0173 8.54488 50.9281 8.67501 50.8159 8.78372C50.7038 8.89242 50.5709 8.97749 50.4253 9.03386C50.2796 9.09024 50.1241 9.11678 49.968 9.1119ZM56.2391 8.13793C55.505 8.13793 54.7435 8.46183 54.4287 9.17782L55.3299 9.554C55.522 9.17782 55.88 9.05622 56.2573 9.05622C56.7812 9.05622 57.3154 9.37102 57.3233 9.93017V10.0006C56.9977 9.82706 56.6342 9.73687 56.2653 9.73811C55.2947 9.73811 54.306 10.2723 54.306 11.269C54.306 12.1781 55.1015 12.7646 55.9936 12.7646C56.6755 12.7646 57.0528 12.4589 57.2892 12.0997H57.3233V12.6248H58.303V10.0154C58.303 8.80846 57.4029 8.13566 56.2391 8.13566M56.1175 11.8611C55.7845 11.8611 55.322 11.6951 55.322 11.2837C55.322 10.7587 55.8993 10.5587 56.3982 10.5587C56.7218 10.5497 57.0418 10.6282 57.3245 10.7859C57.2874 11.0806 57.1448 11.3519 56.9231 11.5496C56.7014 11.7472 56.4156 11.8579 56.1187 11.8611M61.8727 8.2834L60.7089 11.2314H60.6737L59.4702 8.2834H58.3769L60.1873 12.4032L59.1519 14.6955H60.21L63.0001 8.2834H61.8727ZM52.7331 12.6339H53.7479V5.83541H52.7331V12.6339Z" fill="white"/>
<path d="M5.84362 6.88794L0.0532227 13.025C0.115556 13.2577 0.230844 13.473 0.390086 13.6538C0.549329 13.8347 0.748217 13.9763 0.971227 14.0676C1.19424 14.159 1.43533 14.1975 1.6757 14.1803C1.91606 14.163 2.14919 14.0905 2.35688 13.9682L2.37507 13.958L8.89622 10.2031L5.84362 6.88794Z" fill="#C0C4CE"/>
<path d="M11.7011 5.83544H11.6954L8.8815 4.20117L5.71411 7.02193L8.89627 10.2041L11.692 8.59255C11.9399 8.45879 12.1471 8.26065 12.2918 8.01902C12.4365 7.77738 12.5134 7.50119 12.5143 7.21954C12.5153 6.93789 12.4402 6.66119 12.2971 6.41861C12.154 6.17602 11.9481 5.97652 11.7011 5.84112" fill="#A8AAAF"/>
<path d="M0.0534212 1.36353C0.0177198 1.49464 -0.000244859 1.62995 6.63832e-06 1.76584V12.625C-0.000396578 12.7609 0.0175707 12.8962 0.0534212 13.0273L6.0427 7.03914L0.0534212 1.36353Z" fill="#E7E9ED"/>
<path d="M5.88567 7.19586L8.88259 4.20008L2.37279 0.425811C2.16494 0.300843 1.9309 0.225858 1.68913 0.206765C1.44735 0.187672 1.20444 0.224994 0.979552 0.315788C0.75466 0.406582 0.553929 0.548367 0.393178 0.729969C0.232428 0.911571 0.116052 1.12803 0.0532227 1.36228L5.88567 7.19586Z" fill="#C0C4CE"/>
<path d="M17.9986 3.30449C17.7321 3.15371 17.512 2.93282 17.3621 2.66579C17.2101 2.39055 17.1304 2.08126 17.1304 1.76683C17.1304 1.4524 17.2101 1.1431 17.3621 0.867866C17.5123 0.60108 17.7323 0.380266 17.9986 0.229161C18.2717 0.0753705 18.5807 -0.00307278 18.8941 0.00186341C19.1304 -0.00339704 19.3649 0.0434705 19.5809 0.139131C19.797 0.234792 19.9893 0.376896 20.1443 0.555332L19.7794 0.911052C19.6733 0.780212 19.5404 0.673639 19.3896 0.598519C19.2359 0.525516 19.0677 0.488218 18.8975 0.489416C18.6774 0.486861 18.4604 0.541698 18.2679 0.648524C18.0774 0.752773 17.92 0.908283 17.8133 1.09744C17.7006 1.30224 17.6438 1.5331 17.6485 1.76683C17.6436 2.00057 17.7005 2.23147 17.8133 2.43622C17.9192 2.62739 18.0767 2.78492 18.2679 2.89081C18.4609 2.99571 18.6779 3.04858 18.8975 3.04424C19.0851 3.0453 19.2703 3.00272 19.4385 2.91988C19.6068 2.83704 19.7534 2.7162 19.867 2.56691L20.2409 2.92604C20.0793 3.11879 19.8776 3.27393 19.6499 3.38064C19.3875 3.49729 19.1016 3.55154 18.8147 3.53912C18.5278 3.5267 18.2476 3.44794 17.9963 3.30904L17.9986 3.30449Z" fill="white"/>
<path d="M20.8296 0.0688477H21.3501V1.71448H21.3785L22.7218 0.0688477H23.3753V0.0972598L21.9468 1.79062L23.4503 3.43285V3.46126H22.7684L21.374 1.90882H21.3456V3.46126H20.8296V0.0688477Z" fill="white"/>
<path d="M25.0548 0.0688477H25.6457L26.9277 3.45671H26.3595L26.0469 2.58616H24.6615L24.3524 3.46126H23.7842L25.0548 0.0688477ZM25.873 2.10316L25.4946 1.06441L25.3673 0.676867H25.3389L25.2105 1.06441L24.832 2.10316H25.873Z" fill="white"/>
<path d="M28.8872 1.952C28.6697 2.1392 28.3898 2.23778 28.103 2.22817C27.9105 2.23087 27.7201 2.18804 27.5473 2.10316C27.3849 2.02221 27.2492 1.89638 27.1563 1.74062C27.0586 1.57121 27.0094 1.37813 27.0142 1.1826V0.0688477H27.5404V1.09169C27.5347 1.1791 27.5478 1.26672 27.5788 1.34866C27.6097 1.4306 27.6579 1.50496 27.72 1.56674C27.8524 1.6837 28.0254 1.74409 28.2019 1.73494C28.3326 1.73738 28.4622 1.70964 28.5804 1.65385C28.6987 1.59807 28.8025 1.51575 28.8838 1.41331V0.0688477H29.3997V3.46126H28.8872V1.952Z" fill="white"/>
<path d="M31.1386 0.0688477H31.7307L33.0127 3.46126H32.4444L32.133 2.59071H30.7465L30.434 3.46126H29.8657L31.1386 0.0688477ZM31.958 2.10316L31.5795 1.06441L31.4511 0.676867H31.4227L31.2954 1.06441L30.917 2.10316H31.958Z" fill="white"/>
<path d="M33.8925 0.565492H32.9424V0.0688477H35.3597V0.560946H34.413V3.46126H33.8925V0.565492Z" fill="white"/>
<path d="M35.8982 0.0688477H36.4198V1.27921H37.1381C37.3413 1.2778 37.5422 1.32249 37.7257 1.4099C37.859 1.47836 37.9768 1.57366 38.0716 1.68981C38.1664 1.80596 38.2362 1.94045 38.2765 2.08485C38.3169 2.22924 38.3269 2.38042 38.306 2.52888C38.2852 2.67734 38.2338 2.81989 38.1553 2.94757C38.05 3.11171 37.9013 3.24349 37.7257 3.32829C37.5427 3.41748 37.3416 3.463 37.1381 3.46126H35.8982V0.0688477ZM37.1767 2.96916C37.2912 2.97139 37.4041 2.94189 37.5029 2.88392C37.5948 2.82955 37.6699 2.7509 37.72 2.65663C37.7699 2.56615 37.7961 2.46449 37.7961 2.36114C37.7961 2.25779 37.7699 2.15613 37.72 2.06565C37.6693 1.97178 37.5944 1.89327 37.5029 1.83836C37.4046 1.77914 37.2915 1.74882 37.1767 1.75085H36.4198V2.96689L37.1767 2.96916Z" fill="white"/>
<path d="M39.9919 0.0688477H40.5067V1.94632L40.4783 2.5998H40.5067L42.0262 0.0688477H42.6171V3.46126H42.1012V1.53946L42.1296 0.887118H42.1012L40.559 3.46126H39.9907L39.9919 0.0688477Z" fill="white"/>
<path d="M43.6365 3.31931C43.4176 3.16497 43.2621 2.9364 43.199 2.67606L43.6729 2.48627C43.7047 2.64733 43.7886 2.79348 43.9116 2.90223C44.0275 3.00268 44.1764 3.05689 44.3298 3.05451C44.4936 3.05806 44.6527 2.99961 44.7753 2.89086C44.834 2.84125 44.881 2.77922 44.9128 2.70926C44.9446 2.63929 44.9606 2.56313 44.9594 2.48627C44.9595 2.38387 44.9282 2.2839 44.8696 2.19988C44.8066 2.11114 44.7216 2.04027 44.623 1.99417C44.5167 1.94306 44.4 1.91701 44.282 1.91803H44.0138V1.46343H44.265C44.4188 1.4689 44.5695 1.41934 44.69 1.32365C44.7458 1.27856 44.7902 1.22106 44.8198 1.15575C44.8494 1.09044 44.8634 1.01912 44.8605 0.947469C44.8611 0.882486 44.8472 0.81819 44.8199 0.759226C44.7926 0.700263 44.7525 0.648105 44.7025 0.606524C44.5922 0.513483 44.4513 0.464508 44.307 0.469009C44.1755 0.46551 44.0474 0.511316 43.9479 0.597432C43.8536 0.67753 43.7831 0.782149 43.7445 0.899737L43.2899 0.71108C43.3621 0.515931 43.4873 0.344747 43.6513 0.216709C43.8402 0.0679166 44.0759 -0.00864623 44.3161 0.000776762C44.5053 -0.00250352 44.6925 0.0387639 44.8628 0.121244C45.0153 0.195743 45.1446 0.31049 45.2367 0.453098C45.3271 0.594881 45.3741 0.760001 45.3719 0.928149C45.3782 1.07821 45.3408 1.22686 45.2644 1.35615C45.188 1.48543 45.0757 1.5898 44.9412 1.65664V1.68505C45.0936 1.75572 45.2251 1.86455 45.3231 2.00099C45.4273 2.14905 45.4807 2.32689 45.4754 2.50786C45.4771 2.6937 45.425 2.87608 45.3253 3.03292C45.2251 3.19155 45.0837 3.31999 44.9162 3.40455C44.736 3.49586 44.5363 3.54189 44.3343 3.53866C44.0847 3.53882 43.8411 3.46224 43.6365 3.31931Z" fill="white"/>
</svg>
