<svg width="74" height="11" viewBox="0 0 74 11" fill="none" xmlns="http://www.w3.org/2000/svg">
<path d="M22.2224 8.86833H22.4772V2.39044H21.6808V5.42243L21.7658 7.27473L17.444 2.40079H17.168V8.85798H17.9537V5.75356L17.89 3.98404L22.2224 8.86833ZM28.3598 7.26438L29.135 8.85798H29.9526V8.7545L26.8945 2.36974H26.5334L23.4435 8.7545V8.85798H24.2717L25.0469 7.26438H28.3598ZM26.7033 3.58047L28.0944 6.60211H25.3123L26.7033 3.58047ZM30.3667 7.09881C30.4092 8.42337 31.8002 9.00286 33.0319 8.97181C34.2318 8.94077 35.6016 8.44406 35.6016 7.05742C35.6016 5.62939 34.3699 5.39138 33.0532 5.24651C32.2462 5.14303 31.2905 5.11198 31.2905 4.14961C31.2905 3.30107 32.2037 3.00098 32.9258 2.98028C33.6797 2.98028 34.5716 3.23898 34.6459 4.05648H35.3892C35.3468 2.80436 34.0513 2.25592 32.9045 2.28696C31.7365 2.28696 30.4941 2.88715 30.4941 4.15996C30.4941 5.45347 31.7046 5.75356 32.9045 5.87774C33.8071 6.00192 34.8052 6.01226 34.8052 7.05742C34.7734 7.99909 33.7965 8.26814 33.0107 8.29919C32.1931 8.29919 31.1737 7.96805 31.1206 7.09881H30.3561H30.3667ZM42.0045 8.85798V2.40079H41.2081V5.12233H37.7041V2.40079H36.9183V8.85798H37.7041V5.826H41.2081V8.85798H42.0045ZM44.9034 6.8815C44.33 6.8815 43.8309 6.8815 43.2681 6.8815C43.2257 9.72722 48.6304 9.65479 48.6304 6.93324C48.6304 5.31894 47.3456 5.15338 46.0289 5.0085C45.4343 4.94641 44.9352 4.84293 44.9777 4.35657C45.0308 3.59082 46.8147 3.51838 46.8147 4.37727C47.3881 4.37727 47.8234 4.37727 48.4287 4.37727C48.4712 1.59364 43.3106 1.59364 43.3743 4.37727C43.3955 5.78461 44.3406 6.26062 45.7847 6.3641C46.443 6.40549 46.9952 6.47793 46.9952 6.9229C46.9952 7.6783 44.9246 7.699 44.9246 6.8815H44.9034ZM50.8391 3.87021V8.85798C51.4019 8.85798 51.954 8.85798 52.5168 8.85798V3.87021H54.1414C54.1414 3.37351 54.1414 2.88715 54.1414 2.39044H49.2145C49.2145 2.8768 49.2145 3.37351 49.2145 3.87021H50.8391ZM61.585 5.62939C61.585 1.15902 54.7785 1.15902 54.7785 5.62939C54.7785 10.1101 61.585 10.1101 61.585 5.62939ZM56.5306 5.62939C56.5306 3.30107 59.8541 3.30107 59.8541 5.62939C59.8541 7.9784 56.5306 7.9784 56.5306 5.62939ZM67.1703 6.56071C68.848 5.45347 68.3701 2.40079 65.7686 2.39044C64.8023 2.39044 63.8148 2.39044 62.8592 2.39044C62.8592 4.55319 62.8592 6.70559 62.8592 8.84764C63.4113 8.84764 63.9847 8.84764 64.5581 8.84764V6.94359H65.4395L66.5756 8.84764H68.4657V8.60963L67.1703 6.56071ZM65.7686 5.46382H64.5581C64.5581 4.94641 64.5581 4.39797 64.5581 3.87021C64.951 3.87021 65.3757 3.85987 65.7686 3.87021C66.7349 3.88056 66.6924 5.46382 65.7686 5.46382ZM73.6263 2.39044C72.076 2.39044 71.0248 2.39044 69.4851 2.39044C69.4851 4.53249 69.4851 6.69524 69.4851 8.84764C71.0248 8.84764 72.1609 8.84764 73.7112 8.84764C73.7112 8.36128 73.7112 7.86457 73.7112 7.37821C72.7131 7.37821 72.1503 7.37821 71.1734 7.37821C71.1734 6.99533 71.1734 6.6228 71.1734 6.23992H73.4245C73.4245 5.75356 73.4245 5.25686 73.4245 4.7705H71.1734V3.85987C72.1503 3.85987 72.6388 3.85987 73.6263 3.85987C73.6263 3.36316 73.6263 2.86645 73.6263 2.38009V2.39044Z" fill="#FAFCFE"/>
<path d="M11.2534 0.382893C11.3065 0.300108 11.2428 0.186279 11.1366 0.186279H8.93862C8.83244 0.186279 8.76873 0.28976 8.82182 0.382893L9.91552 2.2352C9.96861 2.31798 10.096 2.31798 10.1491 2.2352L11.2534 0.382893Z" fill="#FAFCFE"/>
<path d="M8.92802 10.7723C8.87493 10.8551 8.93864 10.9689 9.04482 10.9689H11.2428C11.349 10.9689 11.4127 10.8654 11.3596 10.7723L10.2553 8.92C10.2022 8.83721 10.0748 8.83721 10.0217 8.92L8.9174 10.7723H8.92802Z" fill="#FAFCFE"/>
<path d="M12.8887 2.51457C12.9949 2.51457 13.0586 2.41109 13.0055 2.31796L11.9012 0.465653C11.8481 0.382868 11.7207 0.382868 11.6676 0.465653L10.5633 2.31796C10.5102 2.40074 10.5739 2.51457 10.6801 2.51457H12.8781H12.8887Z" fill="#FAFCFE"/>
<path d="M11.6675 4.94638C11.7206 5.02916 11.848 5.02916 11.9011 4.94638L13.0054 3.09407C13.0585 3.01129 12.9948 2.89746 12.8886 2.89746H10.6906C10.5844 2.89746 10.5207 3.00094 10.5738 3.09407L11.6781 4.94638H11.6675Z" fill="#FAFCFE"/>
<path d="M14.5452 5.31901C14.6514 5.31901 14.7151 5.21553 14.662 5.1224L13.5577 3.2701C13.5046 3.18731 13.3772 3.18731 13.3241 3.2701L12.2198 5.1224C12.1667 5.20519 12.2304 5.31901 12.3366 5.31901H14.5346H14.5452Z" fill="#FAFCFE"/>
<path d="M13.3347 7.75082C13.3878 7.83361 13.5152 7.83361 13.5683 7.75082L14.6726 5.89852C14.7257 5.81573 14.662 5.7019 14.5558 5.7019H12.3578C12.2516 5.7019 12.1879 5.80539 12.241 5.89852L13.3453 7.75082H13.3347Z" fill="#FAFCFE"/>
<path d="M10.5738 7.93685C10.5207 8.01964 10.5844 8.13347 10.6906 8.13347H12.8886C12.9948 8.13347 13.0585 8.02999 13.0054 7.93685L11.9011 6.08455C11.848 6.00176 11.7206 6.00176 11.6675 6.08455L10.5632 7.93685H10.5738Z" fill="#FAFCFE"/>
<path d="M11.6675 10.555C11.7206 10.6378 11.848 10.6378 11.9011 10.555L13.0054 8.70272C13.0585 8.61993 12.9948 8.5061 12.8886 8.5061H10.6906C10.5844 8.5061 10.5207 8.60958 10.5738 8.70272L11.6781 10.555H11.6675Z" fill="#FAFCFE"/>
<path d="M6.88919 0.269123C6.94228 0.186339 6.87857 0.0725098 6.77238 0.0725098H4.57436C4.46818 0.0725098 4.40447 0.17599 4.45756 0.269123L5.55126 2.12143C5.60435 2.20421 5.73177 2.20421 5.78487 2.12143L6.88919 0.269123Z" fill="#FAFCFE"/>
<path d="M4.40458 10.762C4.35149 10.8448 4.4152 10.9587 4.52138 10.9587H6.7194C6.82559 10.9587 6.8893 10.8552 6.83621 10.762L5.73189 8.90974C5.6788 8.82696 5.55137 8.82696 5.49828 8.90974L4.39396 10.762H4.40458Z" fill="#FAFCFE"/>
<path d="M8.49272 2.50432C8.5989 2.50432 8.66261 2.40084 8.60952 2.3077L7.5052 0.455399C7.45211 0.372614 7.32469 0.372614 7.2716 0.455399L6.16728 2.3077C6.11418 2.39049 6.1779 2.50432 6.28408 2.50432H8.4821H8.49272Z" fill="#FAFCFE"/>
<path d="M7.27148 4.92563C7.32457 5.00841 7.45199 5.00841 7.50508 4.92563L8.6094 3.07332C8.66249 2.99054 8.59878 2.87671 8.4926 2.87671H6.29458C6.18839 2.87671 6.12468 2.98019 6.17777 3.07332L7.28209 4.92563H7.27148Z" fill="#FAFCFE"/>
<path d="M10.149 5.30852C10.2552 5.30852 10.3189 5.20504 10.2658 5.1119L9.16145 3.2596C9.10836 3.17681 8.98094 3.17681 8.92785 3.2596L7.82353 5.1119C7.77043 5.19469 7.83415 5.30852 7.94033 5.30852H10.1383H10.149Z" fill="#FAFCFE"/>
<path d="M8.93847 7.73007C8.99156 7.81286 9.11898 7.81286 9.17207 7.73007L10.2764 5.87777C10.3295 5.79498 10.2658 5.68115 10.1596 5.68115H7.96157C7.85539 5.68115 7.79167 5.78463 7.84477 5.87777L8.94909 7.73007H8.93847Z" fill="#FAFCFE"/>
<path d="M6.17777 7.91635C6.12468 7.99913 6.18839 8.11296 6.29458 8.11296H8.4926C8.59878 8.11296 8.66249 8.00948 8.6094 7.91635L7.50508 6.06404C7.45199 5.98126 7.32457 5.98126 7.27148 6.06404L6.16716 7.91635H6.17777Z" fill="#FAFCFE"/>
<path d="M7.27148 10.5343C7.32457 10.6171 7.45199 10.6171 7.50508 10.5343L8.6094 8.68196C8.66249 8.59918 8.59878 8.48535 8.4926 8.48535H6.29458C6.18839 8.48535 6.12468 8.58883 6.17777 8.68196L7.28209 10.5343H7.27148Z" fill="#FAFCFE"/>
<path d="M2.66311 0.196613C2.7162 0.113829 2.65249 0 2.54631 0H0.348289C0.242104 0 0.178393 0.103481 0.231486 0.196613L1.32519 2.04892C1.37828 2.1317 1.5057 2.1317 1.55879 2.04892L2.66311 0.196613Z" fill="#FAFCFE"/>
<path d="M0.0190834 10.6895C-0.0340089 10.7723 0.0297018 10.8862 0.135886 10.8862H2.33391C2.44009 10.8862 2.5038 10.7827 2.45071 10.6895L1.34639 8.83723C1.2933 8.75445 1.16588 8.75445 1.11278 8.83723L0.00846494 10.6895H0.0190834Z" fill="#FAFCFE"/>
<path d="M4.33036 2.43181C4.43655 2.43181 4.50026 2.32833 4.44717 2.23519L3.34285 0.382889C3.28976 0.300105 3.16233 0.300105 3.10924 0.382889L2.00492 2.23519C1.95183 2.31798 2.01554 2.43181 2.12173 2.43181H4.31975H4.33036Z" fill="#FAFCFE"/>
<path d="M2.88622 4.85336C2.93931 4.93615 3.06674 4.93615 3.11983 4.85336L4.22415 3.00106C4.27724 2.91827 4.21353 2.80444 4.10734 2.80444H1.90932C1.80314 2.80444 1.73943 2.90792 1.79252 3.00106L2.89684 4.85336H2.88622Z" fill="#FAFCFE"/>
<path d="M5.76396 5.23601C5.87014 5.23601 5.93385 5.13253 5.88076 5.03939L4.77644 3.18709C4.72335 3.1043 4.59593 3.1043 4.54284 3.18709L3.43852 5.03939C3.38542 5.12218 3.44914 5.23601 3.55532 5.23601H5.75334H5.76396Z" fill="#FAFCFE"/>
<path d="M4.55346 7.65756C4.60655 7.74035 4.73397 7.74035 4.78706 7.65756L5.89138 5.80526C5.94448 5.72247 5.88076 5.60864 5.77458 5.60864H3.57656C3.47038 5.60864 3.40666 5.71212 3.45976 5.80526L4.56408 7.65756H4.55346Z" fill="#FAFCFE"/>
<path d="M1.79252 7.84384C1.73943 7.92662 1.80314 8.04045 1.90932 8.04045H4.10734C4.21353 8.04045 4.27724 7.93697 4.22415 7.84384L3.11983 5.99153C3.06674 5.90875 2.93931 5.90875 2.88622 5.99153L1.7819 7.84384H1.79252Z" fill="#FAFCFE"/>
<path d="M2.88622 10.462C2.93931 10.5448 3.06674 10.5448 3.11983 10.462L4.22415 8.6097C4.27724 8.52691 4.21353 8.41309 4.10734 8.41309H1.90932C1.80314 8.41309 1.73943 8.51657 1.79252 8.6097L2.89684 10.462H2.88622Z" fill="#FAFCFE"/>
</svg>
