<svg width="25" height="23" viewBox="0 0 25 23" fill="none" xmlns="http://www.w3.org/2000/svg">
<path d="M6.10687 1.00032C4.539 1.00032 2.97349 1.64022 1.78358 2.90443C-0.596041 5.43337 -0.593011 9.51945 1.78358 12.05L10.8795 21.7305C11.0418 21.9028 11.2637 22 11.4952 22C11.7267 22 11.9486 21.9028 12.1107 21.7305C15.146 18.505 18.1804 15.2849 21.2153 12.0591C23.5949 9.53017 23.5949 5.44195 21.2153 2.91354C18.8357 0.384595 14.9396 0.384595 12.5601 2.91354L11.4996 4.03918L10.4301 2.9041C9.24015 1.63963 7.67469 1 6.10677 1L6.10687 1.00032ZM6.10687 2.78259C7.22134 2.78259 8.33323 3.24176 9.1987 4.16161L10.8883 5.95331L10.8885 5.9531C11.0507 6.12563 11.2725 6.22278 11.5041 6.22278C11.7358 6.22278 11.9575 6.12563 12.1198 5.9531L13.7916 4.17083C15.5224 2.33143 18.2535 2.33143 19.9841 4.17083C21.7149 6.01024 21.7149 8.95396 19.9841 10.7934C17.1551 13.7997 14.3283 16.8107 11.4994 19.8173L3.01468 10.7842C1.28487 8.94232 1.28389 6.00113 3.01468 4.16172C3.8802 3.24212 4.99225 2.7827 6.10651 2.7827L6.10687 2.78259Z" fill="#FF493E"/>
<circle cx="18.5" cy="15.5" r="5.5" fill="#FAFCFE"/>
<mask id="path-3-inside-1_742_2208" fill="white">
<path d="M25 15.4424C25 18.8942 22.2018 21.6924 18.75 21.6924C15.2982 21.6924 12.5 18.8942 12.5 15.4424C12.5 11.9906 15.2982 9.19238 18.75 9.19238C22.2018 9.19238 25 11.9906 25 15.4424ZM14.0913 15.4424C14.0913 18.0153 16.1771 20.1011 18.75 20.1011C21.3229 20.1011 23.4087 18.0153 23.4087 15.4424C23.4087 12.8694 21.3229 10.7837 18.75 10.7837C16.1771 10.7837 14.0913 12.8694 14.0913 15.4424Z"/>
</mask>
<path d="M25 15.4424C25 18.8942 22.2018 21.6924 18.75 21.6924C15.2982 21.6924 12.5 18.8942 12.5 15.4424C12.5 11.9906 15.2982 9.19238 18.75 9.19238C22.2018 9.19238 25 11.9906 25 15.4424ZM14.0913 15.4424C14.0913 18.0153 16.1771 20.1011 18.75 20.1011C21.3229 20.1011 23.4087 18.0153 23.4087 15.4424C23.4087 12.8694 21.3229 10.7837 18.75 10.7837C16.1771 10.7837 14.0913 12.8694 14.0913 15.4424Z" fill="#FAFCFE" stroke="#FF493E" stroke-width="4" mask="url(#path-3-inside-1_742_2208)"/>
</svg>
