<svg width="25" height="23" viewBox="0 0 25 23" fill="none" xmlns="http://www.w3.org/2000/svg">
<path d="M6.10687 1.00032C4.539 1.00032 2.97349 1.64022 1.78358 2.90443C-0.596041 5.43337 -0.593011 9.51945 1.78358 12.05L10.8795 21.7305C11.0418 21.9028 11.2637 22 11.4952 22C11.7267 22 11.9486 21.9028 12.1107 21.7305C15.146 18.505 18.1804 15.2849 21.2153 12.0591C23.5949 9.53017 23.5949 5.44195 21.2153 2.91354C18.8357 0.384595 14.9396 0.384595 12.5601 2.91354L11.4996 4.03918L10.4301 2.9041C9.24015 1.63963 7.67469 1 6.10677 1L6.10687 1.00032ZM6.10687 2.78259C7.22134 2.78259 8.33323 3.24176 9.1987 4.16161L10.8883 5.95331L10.8885 5.9531C11.0507 6.12563 11.2725 6.22278 11.5041 6.22278C11.7358 6.22278 11.9575 6.12563 12.1198 5.9531L13.7916 4.17083C15.5224 2.33143 18.2535 2.33143 19.9841 4.17083C21.7149 6.01024 21.7149 8.95396 19.9841 10.7934C17.1551 13.7997 14.3283 16.8107 11.4994 19.8173L3.01468 10.7842C1.28487 8.94232 1.28389 6.00113 3.01468 4.16172C3.8802 3.24212 4.99225 2.7827 6.10651 2.7827L6.10687 2.78259Z" fill="#A7AAAC"/>
</svg>
