<svg width="27" height="24" viewBox="0 0 27 24" fill="none" xmlns="http://www.w3.org/2000/svg">
<path d="M1.04975 19.7412C1.07274 19.7105 3.30522 16.6676 3.3128 13.5658C3.29858 13.3811 3.29156 13.1926 3.29156 13.004V10.678C3.29663 8.98853 3.8742 7.35091 4.92953 6.03302C5.98506 4.71534 7.45567 3.79545 9.10102 3.42399V2.49061C9.08504 2.05281 9.24735 1.62713 9.55094 1.31169C9.85452 0.996073 10.2731 0.817871 10.7105 0.817871C11.148 0.817871 11.5667 0.996073 11.8703 1.31169C12.1739 1.6271 12.3362 2.0528 12.32 2.49061V3.42359C13.966 3.79444 15.4373 4.71414 16.4931 6.03222C17.549 7.35011 18.1267 8.98808 18.1318 10.678V13.0089C18.1318 13.1974 18.1248 13.386 18.1106 13.5706C18.1182 16.6699 20.3508 19.7131 20.3736 19.746C20.472 19.8788 20.4872 20.0556 20.4132 20.2032C20.3392 20.3507 20.1883 20.444 20.0235 20.444H13.2035C13.0659 21.2329 12.5637 21.9102 11.8494 22.2702C11.1348 22.6301 10.2927 22.6301 9.57834 22.2702C8.86401 21.9102 8.36164 21.2329 8.22426 20.444H1.40422C1.23664 20.4471 1.08213 20.3538 1.00671 20.2041C0.931109 20.0542 0.94767 19.8745 1.04958 19.7412L1.04975 19.7412ZM11.4494 2.49056C11.4356 2.23643 11.2922 2.00748 11.07 1.88431C10.8477 1.76095 10.5778 1.76095 10.3557 1.88431C10.1334 2.00747 9.98995 2.23642 9.97631 2.49056V3.28184L10.0494 3.2752L10.1039 3.27032L10.224 3.26154H10.2606C10.3058 3.26154 10.3512 3.25607 10.3964 3.25451H10.4025C10.5055 3.25022 10.6092 3.24788 10.7129 3.24788C10.8165 3.24788 10.919 3.24788 11.0217 3.25451H11.0305C11.0753 3.25451 11.1193 3.25881 11.1636 3.26154H11.2039L11.3196 3.27032L11.3808 3.27579L11.4506 3.28184L11.4494 2.49056ZM10.7117 21.6634C11.0747 21.6628 11.4274 21.5432 11.716 21.3224C12.0044 21.1017 12.2123 20.7921 12.3081 20.4414H9.11462C9.21069 20.7919 9.41899 21.1015 9.70739 21.3222C9.99578 21.543 10.3486 21.6628 10.7117 21.6634ZM8.62048 19.567H19.2052C18.4959 18.4275 17.2368 16.0501 17.2368 13.5554V13.5205C17.2504 13.3532 17.257 13.1816 17.257 13.0101L17.2568 10.678C17.2568 8.84251 16.4889 7.09112 15.1395 5.84913C13.7903 4.6072 11.9833 3.98846 10.1574 4.14321C9.9735 4.15843 9.79131 4.18205 9.61182 4.21308V4.21328C8.09059 4.47834 6.71102 5.27158 5.7149 6.4536C4.71898 7.63562 4.17006 9.13114 4.16463 10.678V13.0088C4.16463 13.1804 4.17125 13.352 4.18489 13.5192V13.5542C4.18489 16.0502 2.92514 18.4275 2.21645 19.5657L8.62048 19.567Z" fill="#A7AAAC" stroke="#FF493E" stroke-width="0.75"/>
<circle cx="20.4593" cy="16.9095" r="6.19048" fill="#FAFCFE"/>
<mask id="path-3-inside-1_742_2214" fill="white">
<path d="M26.6498 16.9095C26.6498 20.3284 23.8782 23.0999 20.4593 23.0999C17.0404 23.0999 14.2688 20.3284 14.2688 16.9095C14.2688 13.4906 17.0404 10.719 20.4593 10.719C23.8782 10.719 26.6498 13.4906 26.6498 16.9095ZM15.8164 16.9095C15.8164 19.4736 17.8951 21.5523 20.4593 21.5523C23.0235 21.5523 25.1021 19.4736 25.1021 16.9095C25.1021 14.3453 23.0235 12.2666 20.4593 12.2666C17.8951 12.2666 15.8164 14.3453 15.8164 16.9095Z"/>
</mask>
<path d="M26.6498 16.9095C26.6498 20.3284 23.8782 23.0999 20.4593 23.0999C17.0404 23.0999 14.2688 20.3284 14.2688 16.9095C14.2688 13.4906 17.0404 10.719 20.4593 10.719C23.8782 10.719 26.6498 13.4906 26.6498 16.9095ZM15.8164 16.9095C15.8164 19.4736 17.8951 21.5523 20.4593 21.5523C23.0235 21.5523 25.1021 19.4736 25.1021 16.9095C25.1021 14.3453 23.0235 12.2666 20.4593 12.2666C17.8951 12.2666 15.8164 14.3453 15.8164 16.9095Z" fill="#FAFCFE" stroke="#FF493E" stroke-width="3.09524" mask="url(#path-3-inside-1_742_2214)"/>
</svg>
