<svg width="16" height="16" viewBox="0 0 16 16" fill="none" xmlns="http://www.w3.org/2000/svg">
  <path fill-rule="evenodd" clip-rule="evenodd" d="M2.65648 8.96747C4.09041 8.05875 6.03075 7.9999 8.00164 7.9999C10.0098 7.9999 11.9358 8.22873 13.3629 9.2222C14.8348 10.2468 15.6818 12.0115 15.6802 14.8255V15.1892C15.6802 15.4584 15.4739 15.6767 15.2194 15.6767L0.781 15.68C0.658745 15.68 0.541489 15.6287 0.455033 15.5372C0.368576 15.4458 0.320004 15.3218 0.320004 15.1925V14.8252C0.320004 11.7087 1.15581 9.91848 2.65648 8.96747ZM1.24224 14.7048L14.7579 14.7018C14.7354 12.1892 13.9772 10.8171 12.8562 10.0367C11.6723 9.2125 9.98795 8.97494 8.00164 8.97494C5.97808 8.97494 4.30805 9.05747 3.13022 9.80389C2.03442 10.4983 1.26325 11.8489 1.24224 14.7048Z" fill="#A7AAAC"/>
  <path fill-rule="evenodd" clip-rule="evenodd" d="M2.48518 8.69717C4.01053 7.73052 6.04868 7.6799 8.00164 7.6799C10.0189 7.6799 12.0324 7.90604 13.5458 8.95957C15.1312 10.0633 16.0018 11.9458 16.0002 14.8257V15.1892C16.0002 15.618 15.6674 15.9967 15.2195 15.9968L0.781072 16C0.567951 16.0001 0.367438 15.9104 0.222518 15.7571C0.078176 15.6045 0 15.4011 0 15.1925V14.8252C0 11.6578 0.851355 9.73257 2.48518 8.69717ZM8.00164 8.3199C6.01282 8.3199 4.17029 8.38698 2.82777 9.23777C1.46027 10.1044 0.640008 11.7596 0.640008 14.8252V15.1925C0.640008 15.2425 0.658977 15.2872 0.687547 15.3174C0.71554 15.347 0.74954 15.36 0.780928 15.36L15.2193 15.3567C15.2804 15.3567 15.3602 15.2989 15.3602 15.1892V14.8255C15.3618 12.0774 14.5383 10.4304 13.1801 9.48483C11.8393 8.55143 10.0006 8.3199 8.00164 8.3199ZM5.29294 9.42645C4.4999 9.53695 3.83751 9.73452 3.30152 10.0742C2.37415 10.6619 1.64226 11.8099 1.56801 14.3848L14.4307 14.3819C14.3495 12.1475 13.6378 10.9707 12.6733 10.2993C11.5758 9.53527 9.97903 9.29495 8.00164 9.29495C6.99082 9.29495 6.08677 9.31584 5.29294 9.42645ZM5.20462 8.79257C6.04615 8.67531 6.9889 8.65494 8.00164 8.65494C9.99687 8.65494 11.7687 8.88974 13.039 9.77405C14.2711 10.6318 15.0548 12.119 15.0779 14.6989C15.0786 14.7843 15.0453 14.8664 14.9852 14.927C14.9251 14.9877 14.8433 15.0218 14.758 15.0218L1.24231 15.0249C1.15702 15.0249 1.07525 14.9908 1.01516 14.9303C0.955063 14.8698 0.921617 14.7878 0.922245 14.7025C0.943641 11.7933 1.73253 10.3108 2.95893 9.53359C3.60076 9.12684 4.36229 8.90994 5.20462 8.79257Z" fill="#A7AAAC"/>
  <path fill-rule="evenodd" clip-rule="evenodd" d="M8.00036 1.23213C6.38338 1.23213 5.07244 2.54307 5.07244 4.16005C5.07244 5.77703 6.38338 7.08798 8.00036 7.08798C9.61734 7.08798 10.9283 5.77706 10.9283 4.16005C10.9283 2.54307 9.61734 1.23213 8.00036 1.23213ZM4.16031 4.16005C4.16031 2.03932 5.87963 0.320004 8.00036 0.320004C10.1211 0.320004 11.8404 2.03932 11.8404 4.16005C11.8404 6.28082 10.1211 8.0001 8.00036 8.0001C5.87963 8.0001 4.16031 6.28078 4.16031 4.16005Z" fill="#A7AAAC"/>
  <path fill-rule="evenodd" clip-rule="evenodd" d="M3.84031 4.16005C3.84031 1.86259 5.70289 0 8.00036 0C10.2978 0 12.1604 1.86259 12.1604 4.16005C12.1604 6.45755 10.2978 8.32011 8.00036 8.32011C5.70289 8.32011 3.84031 6.45752 3.84031 4.16005ZM8.00036 0.640008C6.05636 0.640008 4.48031 2.21606 4.48031 4.16005C4.48031 6.10405 6.05636 7.6801 8.00036 7.6801C9.94436 7.6801 11.5204 6.10408 11.5204 4.16005C11.5204 2.21606 9.94436 0.640008 8.00036 0.640008ZM8.00036 1.55213C6.56011 1.55213 5.39244 2.71981 5.39244 4.16005C5.39244 5.6003 6.56011 6.76797 8.00036 6.76797C9.44061 6.76797 10.6083 5.60032 10.6083 4.16005C10.6083 2.71981 9.4406 1.55213 8.00036 1.55213ZM4.75243 4.16005C4.75243 2.36634 6.20665 0.912125 8.00036 0.912125C9.79407 0.912125 11.2483 2.36634 11.2483 4.16005C11.2483 5.95379 9.79407 7.40798 8.00036 7.40798C6.20665 7.40798 4.75243 5.95376 4.75243 4.16005Z" fill="#A7AAAC"/>
</svg>
