<svg width="37" height="32" viewBox="0 0 37 32" fill="none" xmlns="http://www.w3.org/2000/svg">
<path d="M36.2693 10.6663V10.4997V10.4163C36.2693 10.333 36.2693 10.2497 36.186 10.1663V10.083C36.186 9.99967 36.1026 9.99967 36.1026 9.91634L36.0193 9.833L26.0192 0.250004C25.8525 0.0833346 25.6858 0 25.4358 0H11.3518C11.1018 0 10.9351 0.0833346 10.7685 0.250004L0.768314 9.75014L0.68498 9.83348C0.68498 9.91681 0.601645 9.91681 0.601645 10.0001V10.0835C0.601645 10.1668 0.601645 10.2502 0.518311 10.3335V10.4168V10.5835C0.518311 10.6668 0.601645 10.6668 0.601645 10.7502C0.601645 10.7502 0.601645 10.8335 0.68498 10.8335L17.769 31.75C17.8524 31.8333 17.9357 31.8333 18.019 31.9167H18.1024C18.1857 32 18.269 32 18.4357 32C18.6024 32 18.6857 32 18.7691 31.9167H18.8524C18.9357 31.8333 19.0191 31.8333 19.1024 31.75L36.1865 10.8335C36.1865 10.8335 36.1865 10.7502 36.2698 10.7502C36.1865 10.7502 36.1865 10.6668 36.2698 10.6668L36.2693 10.6663ZM10.9356 11.1664L16.1857 27.3333L3.01882 11.1664H10.9356ZM12.6856 11.1664H23.9353L18.3519 28.5838L12.6856 11.1664ZM25.7696 11.1664H33.7698L20.52 27.3333L25.7696 11.1664ZM33.3531 9.49966H25.6863L22.4363 1.66621H25.103L33.3531 9.49966ZM20.6024 1.66621L23.8525 9.49966H12.8523L16.1024 1.66621H20.6024ZM11.6023 1.66621H14.269L11.0189 9.49966H3.35216L11.6023 1.66621Z" fill="#000"/>
</svg>
