<svg width="34" height="34" viewBox="0 0 34 34" fill="none" xmlns="http://www.w3.org/2000/svg">
<path d="M1.55618 1H32.5639C32.838 1 33.0601 1.22207 33.0601 1.49612V32.5039C33.0601 32.7779 32.838 33 32.5639 33H1.55618C1.28213 33 1.06006 32.7779 1.06006 32.5039V1.49612C1.06006 1.22207 1.28213 1 1.55618 1ZM32.0673 1.99224H2.05211V32.0074H32.0673V1.99224Z" fill="#000"/>
<path fill-rule="evenodd" clip-rule="evenodd" d="M0.560059 1.49612C0.560059 0.94593 1.00599 0.5 1.55618 0.5H32.5639C33.1141 0.5 33.5601 0.94593 33.5601 1.49612V32.5039C33.5601 33.0541 33.1141 33.5 32.5639 33.5H1.55618C1.00599 33.5 0.560059 33.0541 0.560059 32.5039V1.49612ZM2.55211 2.49224V31.5074H31.5673V2.49224H2.55211Z" fill="#000"/>
<path d="M11.2214 32.5039C11.2214 32.778 11.4435 33 11.7176 33C11.9916 33 12.2137 32.778 12.2137 32.5039V22.2542C12.2137 21.9801 11.9916 21.7581 11.7176 21.7581C11.4435 21.7581 11.2214 21.9801 11.2214 22.2542V32.5039Z" fill="#000"/>
<path fill-rule="evenodd" clip-rule="evenodd" d="M10.7214 22.2542C10.7214 21.704 11.1674 21.2581 11.7176 21.2581C12.2677 21.2581 12.7137 21.704 12.7137 22.2542V32.5039C12.7137 33.0541 12.2677 33.5 11.7176 33.5C11.1674 33.5 10.7214 33.0541 10.7214 32.5039V22.2542Z" fill="#000"/>
<path d="M1.55618 18.9133C1.28213 18.9133 1.06006 19.1354 1.06006 19.4094C1.06006 19.6835 1.28213 19.9056 1.55618 19.9056H7.94605C8.22009 19.9056 8.44217 19.6835 8.44217 19.4094C8.44217 19.1354 8.22009 18.9133 7.94605 18.9133H1.55618Z" fill="#000"/>
<path fill-rule="evenodd" clip-rule="evenodd" d="M0.560059 19.4094C0.560059 18.8593 1.00599 18.4133 1.55618 18.4133H7.94605C8.49624 18.4133 8.94217 18.8593 8.94217 19.4094C8.94217 19.9596 8.49624 20.4056 7.94605 20.4056H1.55618C1.00599 20.4056 0.560059 19.9596 0.560059 19.4094Z" fill="#000"/>
<path d="M16.8228 1.49612C16.8228 1.22207 16.6007 1 16.3267 1C16.0526 1 15.8306 1.22207 15.8306 1.49612V7.25761C15.8306 7.53166 16.0526 7.75373 16.3267 7.75373C16.6007 7.75373 16.8228 7.53166 16.8228 7.25761V1.49612Z" fill="#000"/>
<path fill-rule="evenodd" clip-rule="evenodd" d="M15.3306 1.49612C15.3306 0.94593 15.7765 0.5 16.3267 0.5C16.8769 0.5 17.3228 0.94593 17.3228 1.49612V7.25761C17.3228 7.8078 16.8769 8.25373 16.3267 8.25373C15.7765 8.25373 15.3306 7.8078 15.3306 7.25761V1.49612Z" fill="#000"/>
<path d="M32.564 18.8583C32.838 18.8583 33.0601 18.6362 33.0601 18.3622C33.0601 18.0881 32.838 17.866 32.564 17.866H16.9278V12.1817C16.9278 11.9076 16.7057 11.6855 16.4317 11.6855C16.1576 11.6855 15.9355 11.9076 15.9355 12.1817V18.3622C15.9355 18.6362 16.1576 18.8583 16.4317 18.8583L32.564 18.8583Z" fill="#000"/>
<path fill-rule="evenodd" clip-rule="evenodd" d="M15.4355 12.1817C15.4355 11.6315 15.8815 11.1855 16.4317 11.1855C16.9819 11.1855 17.4278 11.6315 17.4278 12.1817V17.366H32.564C33.1142 17.366 33.5601 17.812 33.5601 18.3622C33.5601 18.9124 33.1142 19.3583 32.564 19.3583L16.4317 19.3583C15.8815 19.3583 15.4355 18.9124 15.4355 18.3622V12.1817Z" fill="#000"/>
<path d="M25.1536 26.3887C25.1536 26.6627 25.3756 26.8848 25.6497 26.8848C25.9237 26.8848 26.1458 26.6627 26.1458 26.3887V18.3623C26.1458 18.0883 25.9237 17.8662 25.6497 17.8662C25.3756 17.8662 25.1536 18.0883 25.1536 18.3623V26.3887Z" fill="#000"/>
<path fill-rule="evenodd" clip-rule="evenodd" d="M24.6536 18.3623C24.6536 17.8121 25.0995 17.3662 25.6497 17.3662C26.1999 17.3662 26.6458 17.8121 26.6458 18.3623V26.3887C26.6458 26.9389 26.1999 27.3848 25.6497 27.3848C25.0995 27.3848 24.6536 26.9389 24.6536 26.3887V18.3623Z" fill="#000"/>
</svg>
