<svg width="38" height="32" viewBox="0 0 38 32" fill="none" xmlns="http://www.w3.org/2000/svg">
<path fill-rule="evenodd" clip-rule="evenodd" d="M18.9761 0.00161572C18.8475 0.00523403 18.7211 0.037497 18.6064 0.0962977L0.606936 9.32057C0.405231 9.3863 0.23484 9.5241 0.128269 9.70773C0.0210966 9.88201 -0.0210525 10.0889 0.00995231 10.2912V13.2808C-0.0415274 13.6179 0.109603 13.9538 0.396199 14.1386H0.396499C0.696945 14.3379 1.08922 14.3289 1.38067 14.1169L3.47147 13.0452V31.1241C3.47147 31.6014 3.85802 31.9885 4.33457 31.9885H15.0179C15.2921 32.0337 15.5715 31.9439 15.7681 31.747C15.7744 31.7413 15.7804 31.7355 15.7864 31.7295V31.7292V31.7289C15.9785 31.5326 16.0655 31.2564 16.0213 30.985V20.8962H21.9772V30.9827V30.9824C21.9324 31.2568 22.0218 31.5363 22.2175 31.7332C22.2238 31.7399 22.2298 31.7462 22.2361 31.7528H22.237C22.433 31.9446 22.7088 32.0317 22.9791 31.9874H33.6694C34.1459 31.9871 34.5321 31.6002 34.5321 31.1229V13.0465L36.622 14.1175V14.1172C36.8978 14.3165 37.2648 14.3349 37.5589 14.1642C37.8738 13.9875 38.0454 13.6332 37.9894 13.2759V10.2965C38.0225 10.0869 37.9776 9.87256 37.8632 9.69406C37.757 9.51857 37.592 9.3868 37.3975 9.32197L34.5321 7.85358V2.95676C34.5321 2.47914 34.1458 2.0923 33.6693 2.0923H29.1936C28.717 2.0923 28.3305 2.47916 28.3305 2.95676V4.67549L19.3928 0.0949974C19.2643 0.0289632 19.121 -0.00359817 18.9765 0.000315393L18.9761 0.00161572ZM18.9993 1.83667L36.2627 10.6835V11.9921L19.3923 3.34675L19.3926 3.34705C19.1457 3.22041 18.8531 3.22041 18.6063 3.34705L1.73589 11.9924V10.6838L18.9993 1.83697L18.9993 1.83667ZM30.0563 3.82224H32.8055V6.97015L30.0563 5.56111V3.82224ZM18.9993 5.08747L32.8054 12.1631V30.2604H23.7028V20.0326H23.7031C23.7031 19.5553 23.3165 19.1685 22.84 19.1682H15.1577C14.6812 19.1682 14.2947 19.5553 14.2947 20.0326V30.2604H5.19667V12.1608L18.9989 5.08755L18.9993 5.08747Z" fill="#000"/>
</svg>
