<svg width="33" height="34" viewBox="0 0 33 34" fill="none" xmlns="http://www.w3.org/2000/svg">
<path d="M31.7479 19.5026C30.5997 19.5026 29.6081 18.8328 29.1906 17.7511C28.8775 16.9267 28.1469 16.6691 27.5728 16.6691C26.9987 16.6691 26.2681 16.9781 25.9551 17.7511C25.5375 18.8331 24.5459 19.5026 23.3977 19.5026C22.2496 19.5026 21.2579 18.8328 20.8404 17.7511C20.5273 16.9267 19.7967 16.6691 19.2227 16.6691C18.6486 16.6691 17.9179 16.9781 17.6049 17.7511C17.1873 18.8331 16.1957 19.5026 15.0476 19.5026C13.8994 19.5026 12.9078 18.8328 12.4902 17.7511C12.1772 16.9267 11.4466 16.6691 10.8725 16.6691C10.2984 16.6691 9.56779 16.9781 9.25475 17.7511C8.83719 18.8331 7.79347 19.5026 6.64533 19.5026C6.33225 19.5026 6.12329 19.2449 6.12329 18.9873C6.12329 18.6782 6.38431 18.4719 6.64533 18.4719C7.21942 18.4719 7.95004 18.2143 8.26307 17.3899C8.68063 16.3079 9.67226 15.6384 10.8204 15.6384C11.9685 15.6384 12.9602 16.3083 13.3777 17.3899C13.6908 18.2143 14.4214 18.4719 14.9955 18.4719C15.5696 18.4719 16.3002 18.1629 16.6132 17.3899C17.0308 16.3079 18.0224 15.6384 19.1706 15.6384C20.3187 15.6384 21.3104 16.3083 21.7279 17.3899C22.041 18.2143 22.7716 18.4719 23.3456 18.4719C23.9197 18.4719 24.6503 18.1629 24.9634 17.3899C25.3809 16.3079 26.3726 15.6384 27.5207 15.6384C28.6689 15.6384 29.6605 16.3083 30.078 17.3899C30.3911 18.2143 31.1217 18.4719 31.6958 18.4719C32.0089 18.4719 32.2178 18.6779 32.2178 18.9873C32.2175 19.2963 32.061 19.5026 31.7479 19.5026Z" fill="#000"/>
<path fill-rule="evenodd" clip-rule="evenodd" d="M10.8204 15.7634C9.72351 15.7634 8.77865 16.4014 8.37981 17.4346C8.04252 18.3224 7.2529 18.5969 6.64533 18.5969C6.44353 18.5969 6.24829 18.7567 6.24829 18.9873C6.24829 19.1826 6.40777 19.3776 6.64533 19.3776C7.74507 19.3776 8.74033 18.7369 9.13813 17.7061L9.13887 17.7042L9.13889 17.7042C9.47524 16.8736 10.2597 16.5441 10.8725 16.5441C11.48 16.5441 12.2696 16.8186 12.607 17.7064C13.0057 18.7392 13.9507 19.3776 15.0476 19.3776C16.1446 19.3776 17.0895 18.7394 17.4883 17.7061L17.489 17.7042L17.489 17.7042C17.8254 16.8736 18.6099 16.5441 19.2227 16.5441C19.8302 16.5441 20.6198 16.8186 20.9572 17.7064C21.356 18.7392 22.3009 19.3776 23.3977 19.3776C24.4947 19.3776 25.4397 18.7394 25.8384 17.7061L25.8392 17.7042C26.1756 16.8736 26.96 16.5441 27.5728 16.5441C28.1804 16.5441 28.97 16.8186 29.3073 17.7064C29.7061 18.7392 30.651 19.3776 31.7479 19.3776C31.8753 19.3776 31.9555 19.3368 32.0057 19.2789C32.0584 19.2182 32.0927 19.1221 32.0928 18.9871C32.0928 18.8614 32.0509 18.7662 31.9864 18.7026C31.9217 18.6387 31.8244 18.5969 31.6958 18.5969C31.0883 18.5969 30.2988 18.3225 29.9614 17.4349C29.5627 16.4019 28.6177 15.7634 27.5207 15.7634C26.4237 15.7634 25.4788 16.4016 25.08 17.4349L25.0792 17.4368C24.7429 18.2674 23.9584 18.5969 23.3456 18.5969C22.7381 18.5969 21.9486 18.3224 21.6112 17.4347C21.2124 16.4019 20.2675 15.7634 19.1706 15.7634C18.0736 15.7634 17.1286 16.4016 16.7298 17.4349L16.7291 17.4368L16.7291 17.4368C16.3927 18.2674 15.6083 18.5969 14.9955 18.5969C14.3879 18.5969 13.5983 18.3224 13.261 17.4346C12.8622 16.4018 11.9173 15.7634 10.8204 15.7634ZM8.14646 17.3449C8.5828 16.2142 9.62111 15.5134 10.8204 15.5134C12.0197 15.5134 13.0581 16.2146 13.4943 17.3449L13.4946 17.3455C13.7835 18.1062 14.455 18.3469 14.9955 18.3469C15.5306 18.3469 16.2071 18.0587 16.497 17.3439C16.9336 16.2138 17.9716 15.5134 19.1706 15.5134C20.3699 15.5134 21.4082 16.2146 21.8445 17.3449L21.8447 17.3455C22.1336 18.1062 22.8051 18.3469 23.3456 18.3469C23.8808 18.3469 24.5572 18.0587 24.8472 17.3439C25.2837 16.2137 26.3218 15.5134 27.5207 15.5134C28.72 15.5134 29.7584 16.2146 30.1947 17.3449L30.1949 17.3455C30.4838 18.1062 31.1553 18.3469 31.6958 18.3469C31.8802 18.3469 32.0439 18.4081 32.162 18.5246C32.2802 18.6412 32.3428 18.8037 32.3428 18.9873V18.9874C32.3426 19.1614 32.2985 19.323 32.1945 19.4428C32.0882 19.5653 31.9335 19.6276 31.7479 19.6276C30.5486 19.6276 29.5102 18.9264 29.0739 17.7961L29.0737 17.7955C28.7848 17.0348 28.1133 16.7941 27.5728 16.7941C27.0377 16.7941 26.3612 17.0824 26.0713 17.7971C25.6347 18.9273 24.5967 19.6276 23.3977 19.6276C22.1984 19.6276 21.1601 18.9264 20.7238 17.7961L20.7235 17.7955C20.4347 17.0348 19.7632 16.7941 19.2227 16.7941C18.6875 16.7941 18.0111 17.0823 17.7211 17.7971C17.2846 18.9272 16.2465 19.6276 15.0476 19.6276C13.8483 19.6276 12.8099 18.9264 12.3736 17.7961L12.3734 17.7955C12.0845 17.0348 11.413 16.7941 10.8725 16.7941C10.3374 16.7941 9.66092 17.0823 9.37099 17.7971C8.93342 18.9297 7.84152 19.6276 6.64533 19.6276C6.25673 19.6276 5.99829 19.3073 5.99829 18.9873C5.99829 18.5998 6.32509 18.3469 6.64533 18.3469C7.18587 18.3469 7.85737 18.1062 8.14622 17.3455L8.14646 17.3449Z" fill="#000"/>
<path d="M6.69738 26.2514H6.64533C6.33225 26.2514 6.12329 25.9937 6.12329 25.736C6.12329 25.427 6.38431 25.2207 6.64533 25.2207C7.21942 25.2207 7.95004 24.9631 8.26307 24.1387C8.68063 23.0567 9.67226 22.3872 10.8204 22.3872C11.9685 22.3872 12.9602 23.057 13.3777 24.1387C13.6908 24.963 14.4214 25.2207 14.9955 25.2207C15.5696 25.2207 16.3002 24.9117 16.6132 24.1387C17.0308 23.0567 18.0224 22.3872 19.1706 22.3872C20.3187 22.3872 21.3104 23.057 21.7279 24.1387C22.041 24.963 22.7716 25.2207 23.3456 25.2207C23.9197 25.2207 24.6503 24.9117 24.9634 24.1387C25.3809 23.0567 26.3726 22.3872 27.5207 22.3872C28.6689 22.3872 29.6605 23.057 30.078 24.1387C30.3911 24.963 31.1217 25.2207 31.6958 25.2207C32.0089 25.2207 32.2178 25.4266 32.2178 25.736C32.2178 26.0451 32.0092 26.2514 31.6958 26.2514C30.5476 26.2514 29.556 25.5815 29.1385 24.4999C28.8254 23.6755 28.0948 23.4178 27.5207 23.4178C26.9466 23.4178 26.216 23.7269 25.903 24.4999C25.5892 25.5815 24.5455 26.2514 23.3973 26.2514C22.2491 26.2514 21.2574 25.5815 20.8399 24.4999C20.5269 23.6755 19.7963 23.4178 19.2222 23.4178C18.6481 23.4178 17.9175 23.7269 17.6044 24.4999C17.2393 25.5815 16.1953 26.2514 15.0471 26.2514C13.899 26.2514 12.9073 25.5815 12.4898 24.4999C12.1767 23.6755 11.4461 23.4178 10.872 23.4178C10.298 23.4178 9.56732 23.7269 9.25428 24.4999C8.88915 25.5815 7.84547 26.2514 6.69723 26.2514H6.69738Z" fill="#000"/>
<path fill-rule="evenodd" clip-rule="evenodd" d="M10.8204 22.5122C9.72351 22.5122 8.77865 23.1502 8.37981 24.1834C8.04252 25.0712 7.2529 25.3457 6.64533 25.3457C6.44353 25.3457 6.24829 25.5055 6.24829 25.736C6.24829 25.9313 6.40777 26.1264 6.64533 26.1264H6.69723C6.69728 26.1264 6.69733 26.1264 6.69738 26.1264C7.79835 26.1263 8.78985 25.4849 9.13585 24.4599L9.13822 24.4529L9.13842 24.453C9.47477 23.6224 10.2592 23.2928 10.872 23.2928C11.4796 23.2928 12.2692 23.5674 12.6065 24.4552C13.0053 25.488 13.9502 26.1264 15.0471 26.1264C16.1481 26.1264 17.14 25.4849 17.486 24.4599L17.4884 24.4529L17.4886 24.453C17.8249 23.6224 18.6094 23.2928 19.2222 23.2928C19.8297 23.2928 20.6193 23.5674 20.9566 24.4551C21.3554 25.4879 22.3003 26.1264 23.3973 26.1264C24.4997 26.1264 25.4872 25.4845 25.7829 24.465L25.7865 24.4527L25.7871 24.453C26.1235 23.6224 26.9079 23.2928 27.5207 23.2928C28.1283 23.2928 28.9179 23.5674 29.2552 24.4552C29.654 25.488 30.5989 26.1264 31.6958 26.1264C31.8246 26.1264 31.9219 26.0845 31.9865 26.0207C32.051 25.957 32.0928 25.8617 32.0928 25.736C32.0928 25.6102 32.0509 25.515 31.9864 25.4513C31.9217 25.3875 31.8244 25.3457 31.6958 25.3457C31.0883 25.3457 30.2988 25.0712 29.9614 24.1837C29.5627 23.1507 28.6177 22.5122 27.5207 22.5122C26.4237 22.5122 25.4788 23.1503 25.08 24.1837L25.0792 24.1856C24.7429 25.0162 23.9584 25.3457 23.3456 25.3457C22.7381 25.3457 21.9485 25.0712 21.6111 24.1834C21.2123 23.1506 20.2674 22.5122 19.1706 22.5122C18.0736 22.5122 17.1286 23.1503 16.7298 24.1837L16.7291 24.1856L16.7291 24.1856C16.3927 25.0162 15.6083 25.3457 14.9955 25.3457C14.3879 25.3457 13.5983 25.0712 13.261 24.1834C12.8622 23.1506 11.9173 22.5122 10.8204 22.5122ZM6.69723 26.3764H6.64533C6.25673 26.3764 5.99829 26.0561 5.99829 25.736C5.99829 25.3485 6.32509 25.0957 6.64533 25.0957C7.18587 25.0957 7.85737 24.855 8.14621 24.0943L8.14646 24.0937C8.5828 22.963 9.62111 22.2622 10.8204 22.2622C12.0197 22.2622 13.0581 22.9634 13.4943 24.0937L13.4946 24.0943C13.7835 24.855 14.455 25.0957 14.9955 25.0957C15.5306 25.0957 16.2071 24.8074 16.497 24.0927C16.9336 22.9625 17.9716 22.2622 19.1706 22.2622C20.3699 22.2622 21.4082 22.9634 21.8445 24.0937L21.8447 24.0943C22.1336 24.855 22.8051 25.0957 23.3456 25.0957C23.8807 25.0957 24.5572 24.8075 24.8471 24.0928C25.2837 22.9626 26.3218 22.2622 27.5207 22.2622C28.72 22.2622 29.7584 22.9634 30.1947 24.0937L30.1949 24.0943C30.4838 24.855 31.1553 25.0957 31.6958 25.0957C31.8802 25.0957 32.0439 25.1569 32.162 25.2734C32.2802 25.39 32.3428 25.5524 32.3428 25.736C32.3428 25.9194 32.2803 26.0818 32.1622 26.1985C32.0442 26.3151 31.8804 26.3764 31.6958 26.3764C30.4965 26.3764 29.4581 25.6752 29.0218 24.5449L29.0216 24.5443C28.7327 23.7836 28.0612 23.5428 27.5207 23.5428C26.9868 23.5428 26.3122 23.8298 26.0212 24.5411C25.6871 25.6812 24.5891 26.3764 23.3973 26.3764C22.198 26.3764 21.1596 25.6752 20.7233 24.5449L20.7231 24.5443C20.4342 23.7836 19.7627 23.5428 19.2222 23.5428C18.6877 23.5428 18.0121 23.8305 17.7217 24.5435C17.3363 25.6796 16.2412 26.3764 15.0471 26.3764C13.8478 26.3764 12.8095 25.6752 12.3732 24.5449L12.3729 24.5443C12.084 23.7836 11.4126 23.5428 10.872 23.5428C10.3375 23.5428 9.66197 23.8305 9.3715 24.5435C8.98616 25.6796 7.89151 26.3763 6.69738 26.3764C6.69733 26.3764 6.69728 26.3764 6.69723 26.3764Z" fill="#000"/>
<path d="M31.7479 33.0001C30.5997 33.0001 29.6081 32.3303 29.1906 31.2487C28.8775 30.4243 28.1469 30.1666 27.5728 30.1666C26.9987 30.1666 26.2681 30.4757 25.9551 31.2487C25.5375 32.3307 24.5459 33.0001 23.3977 33.0001C22.2496 33.0001 21.2579 32.3303 20.8404 31.2487C20.5273 30.4243 19.7967 30.1666 19.2227 30.1666C18.6486 30.1666 17.9179 30.4757 17.6049 31.2487C17.1873 32.3307 16.1957 33.0001 15.0476 33.0001C13.8994 33.0001 12.9078 32.3303 12.4902 31.2487C12.1772 30.4243 11.4466 30.1666 10.8725 30.1666C10.2984 30.1666 9.56779 30.4757 9.25475 31.2487C8.83719 32.3307 7.79347 33.0001 6.64533 33.0001C6.33225 33.0001 6.12329 32.7425 6.12329 32.4848C6.12329 32.2272 6.38431 31.9695 6.64533 31.9695H6.69738C7.27147 31.9695 8.00209 31.6605 8.31513 30.8875C8.73269 29.8054 9.72431 29.136 10.8725 29.136C12.0206 29.136 13.0123 29.8058 13.4298 30.8875C13.7429 31.7118 14.4735 31.9695 15.0475 31.9695C15.6216 31.9695 16.3523 31.6605 16.6653 30.8875C17.0828 29.8054 18.0745 29.136 19.2226 29.136C20.3708 29.136 21.3624 29.8058 21.7799 30.8875C22.093 31.7118 22.8236 31.9695 23.3977 31.9695C23.9718 31.9695 24.7024 31.6605 25.0154 30.8875C25.433 29.8054 26.4246 29.136 27.5728 29.136C28.7209 29.136 29.7126 29.8058 30.1301 30.8875C30.4432 31.7118 31.1738 31.9695 31.7479 31.9695C32.0609 31.9695 32.2699 32.1754 32.2699 32.4848C32.2695 32.7942 32.061 33.0001 31.7479 33.0001Z" fill="#000"/>
<path fill-rule="evenodd" clip-rule="evenodd" d="M10.8725 29.261C9.77546 29.261 8.83051 29.8991 8.43175 30.9325L8.43101 30.9344L8.43099 30.9344C8.09464 31.7649 7.31019 32.0945 6.69738 32.0945H6.64533C6.5549 32.0945 6.45442 32.1404 6.37424 32.2195C6.29396 32.2987 6.24829 32.3972 6.24829 32.4848C6.24829 32.6801 6.40777 32.8751 6.64533 32.8751C7.74507 32.8751 8.74033 32.2345 9.13813 31.2037L9.13887 31.2017L9.13889 31.2017C9.47524 30.3712 10.2597 30.0416 10.8725 30.0416C11.48 30.0416 12.2696 30.3162 12.607 31.2039C13.0057 32.2367 13.9507 32.8751 15.0476 32.8751C16.1446 32.8751 17.0895 32.237 17.4883 31.2037L17.489 31.2017L17.489 31.2017C17.8254 30.3712 18.6099 30.0416 19.2227 30.0416C19.8302 30.0416 20.6198 30.3162 20.9572 31.204C21.356 32.2368 22.3009 32.8751 23.3977 32.8751C24.4947 32.8751 25.4397 32.237 25.8384 31.2037L25.8392 31.2017C26.1756 30.3712 26.96 30.0416 27.5728 30.0416C28.1804 30.0416 28.97 30.3162 29.3073 31.204C29.7061 32.2368 30.651 32.8751 31.7479 32.8751C31.8765 32.8751 31.9737 32.8333 32.0383 32.7696C32.1028 32.7059 32.1447 32.6106 32.1449 32.4847C32.1448 32.3589 32.103 32.2637 32.0385 32.2001C31.9738 32.1363 31.8765 32.0945 31.7479 32.0945C31.1404 32.0945 30.3509 31.82 30.0135 30.9325C29.6147 29.8995 28.6697 29.261 27.5728 29.261C26.4758 29.261 25.5308 29.8991 25.1321 30.9325L25.1313 30.9344C24.795 31.7649 24.0105 32.0945 23.3977 32.0945C22.7902 32.0945 22.0006 31.82 21.6633 30.9323C21.2645 29.8994 20.3195 29.261 19.2226 29.261C18.1256 29.261 17.1807 29.8991 16.7819 30.9325L16.7812 30.9344L16.7811 30.9344C16.4448 31.7649 15.6603 32.0945 15.0475 32.0945C14.44 32.0945 13.6504 31.82 13.313 30.9321C12.9142 29.8994 11.9693 29.261 10.8725 29.261ZM8.19889 30.8415C8.63546 29.7113 9.67352 29.011 10.8725 29.011C12.0718 29.011 13.1101 29.7121 13.5464 30.8425L13.5466 30.8431C13.8355 31.6037 14.507 31.8445 15.0475 31.8445C15.5827 31.8445 16.2591 31.5562 16.549 30.8415C16.9856 29.7113 18.0237 29.011 19.2226 29.011C20.4219 29.011 21.4603 29.7121 21.8966 30.8425L21.8968 30.8431C22.1857 31.6037 22.8572 31.8445 23.3977 31.8445C23.9328 31.8445 24.6093 31.5562 24.8992 30.8414C25.3358 29.7113 26.3738 29.011 27.5728 29.011C28.7721 29.011 29.8104 29.7121 30.2467 30.8425L30.247 30.8431C30.5358 31.6037 31.2073 31.8445 31.7479 31.8445C31.9323 31.8445 32.096 31.9057 32.2141 32.0222C32.3323 32.1388 32.3949 32.3012 32.3949 32.4848V32.485C32.3947 32.6685 32.3321 32.8308 32.214 32.9475C32.096 33.064 31.9323 33.1251 31.7479 33.1251C30.5486 33.1251 29.5102 32.424 29.0739 31.2937L29.0737 31.293C28.7848 30.5324 28.1133 30.2916 27.5728 30.2916C27.0377 30.2916 26.3612 30.5799 26.0713 31.2947C25.6347 32.4248 24.5967 33.1251 23.3977 33.1251C22.1984 33.1251 21.1601 32.424 20.7238 31.2937L20.7235 31.293C20.4347 30.5324 19.7632 30.2916 19.2227 30.2916C18.6875 30.2916 18.0111 30.5799 17.7211 31.2946C17.2846 32.4248 16.2465 33.1251 15.0476 33.1251C13.8483 33.1251 12.8099 32.424 12.3736 31.2937L12.3734 31.293C12.0845 30.5324 11.413 30.2916 10.8725 30.2916C10.3374 30.2916 9.66092 30.5799 9.37099 31.2946C8.93342 32.4273 7.84152 33.1251 6.64533 33.1251C6.25673 33.1251 5.99829 32.8048 5.99829 32.4848C5.99829 32.3148 6.08313 32.1556 6.19861 32.0416C6.3142 31.9275 6.47473 31.8445 6.64533 31.8445H6.69738C7.23252 31.8445 7.90896 31.5562 8.19889 30.8415Z" fill="#000"/>
<path d="M6.6452 14.6086C6.54072 14.6086 6.43661 14.5572 6.33213 14.5055C3.93127 12.754 3.46167 9.4052 5.23598 7.08694C7.0103 4.71698 10.4027 4.25342 12.7512 6.0049C15.1517 7.70532 15.6737 11.0542 13.847 13.4238C13.6905 13.6297 13.325 13.6814 13.1164 13.5269C12.9078 13.3724 12.8554 13.0116 13.0119 12.8057C14.4211 10.8997 14.0556 8.2207 12.1247 6.82966C10.1939 5.43861 7.47996 5.79941 6.07078 7.7054C4.66159 9.61143 5.0271 12.2904 6.95793 13.6814C7.16653 13.836 7.21895 14.1968 7.06241 14.4027C6.9583 14.5058 6.80174 14.6086 6.6452 14.6086Z" fill="#000"/>
<path fill-rule="evenodd" clip-rule="evenodd" d="M12.6765 6.10509C10.3827 4.39442 7.06864 4.84762 5.33606 7.16184L5.33526 7.1629C3.60582 9.42253 4.06037 12.6862 6.39721 14.3982C6.50346 14.4506 6.57762 14.4836 6.64522 14.4836C6.75008 14.4836 6.87307 14.4119 6.9678 14.3204C7.01775 14.2502 7.03891 14.1476 7.0234 14.0407C7.00746 13.9308 6.95552 13.8356 6.88421 13.7824C4.89532 12.3489 4.52144 9.59074 5.97028 7.63108L6.07079 7.70539L5.97028 7.63108C7.42219 5.66729 10.2142 5.29922 12.1978 6.72823L12.1247 6.82965L12.1978 6.72823C14.1873 8.16152 14.5614 10.9201 13.1124 12.88L13.1114 12.8813C13.058 12.9516 13.0349 13.0573 13.0509 13.1676C13.0669 13.2779 13.1191 13.3734 13.1908 13.4265C13.2626 13.4797 13.3708 13.5027 13.4837 13.4867C13.5967 13.4708 13.6938 13.4187 13.7475 13.3481L13.748 13.3475C15.5313 11.0342 15.0216 7.7663 12.679 6.10689L12.6765 6.10509ZM12.8247 5.90378C10.4218 4.11269 6.95218 4.58666 5.13633 7.01148C3.31974 9.38558 3.80126 12.8138 6.25847 14.6064L6.26709 14.6127L6.27666 14.6175C6.28003 14.6191 6.28345 14.6208 6.2869 14.6225C6.38332 14.6704 6.51069 14.7336 6.64522 14.7336C6.85095 14.7336 7.03773 14.6031 7.15039 14.4915L7.15663 14.4853L7.16193 14.4783C7.26504 14.3427 7.29404 14.165 7.27082 14.0048C7.24758 13.8446 7.16929 13.6824 7.03235 13.581L7.03101 13.58C5.15882 12.2312 4.80193 9.63188 6.1713 7.7797C7.53775 5.93151 10.1735 5.57798 12.0517 6.93107C13.9237 8.27971 14.2807 10.8786 12.9119 12.7307C12.8092 12.8663 12.7803 13.0436 12.8035 13.2035C12.8267 13.3637 12.905 13.5259 13.042 13.6274C13.1788 13.7287 13.3576 13.757 13.5187 13.7343C13.6795 13.7116 13.8431 13.635 13.946 13.5001C15.8158 11.0746 15.2821 7.64549 12.8247 5.90378Z" fill="#000"/>
<path d="M5.44484 4.7689C5.28831 4.7689 5.13177 4.66576 5.02729 4.56299L4.08808 3.17194C3.93155 2.91428 3.9836 2.60523 4.24462 2.45072C4.50564 2.2962 4.81871 2.34759 4.97524 2.60524L5.91445 3.99629C6.07098 4.25395 6.01893 4.56299 5.75791 4.71751C5.6538 4.71715 5.54932 4.7689 5.44484 4.7689Z" fill="#000"/>
<path fill-rule="evenodd" clip-rule="evenodd" d="M4.86838 2.6701C4.75338 2.4808 4.52077 2.43243 4.30827 2.55824C4.11694 2.6715 4.06914 2.89763 4.19341 3.10455L5.12358 4.48222C5.21873 4.57299 5.34074 4.64385 5.44481 4.64385C5.47916 4.64385 5.51635 4.63529 5.57151 4.62167C5.57315 4.62126 5.57481 4.62085 5.5765 4.62043C5.61578 4.61071 5.66566 4.59837 5.71899 4.59404C5.88946 4.47646 5.92777 4.26126 5.80906 4.06358L4.86838 2.6701ZM5.0804 2.53761C4.88182 2.21398 4.48959 2.16037 4.18091 2.34311C3.85095 2.53843 3.79426 2.92906 3.98122 3.2368L4.93067 4.64327L4.9396 4.65205C5.05224 4.76285 5.23899 4.89385 5.44481 4.89385C5.51237 4.89385 5.57729 4.87778 5.62597 4.86573C5.62782 4.86527 5.62965 4.86482 5.63146 4.86437C5.68653 4.85077 5.72349 4.84234 5.75745 4.84246L5.7919 4.84258L5.82155 4.82503C6.15151 4.6297 6.2082 4.23907 6.02124 3.93134L5.0804 2.53761Z" fill="#000"/>
<path d="M15.1519 6.62333C14.9953 6.62333 14.8388 6.52019 14.7343 6.41742C14.5778 6.15976 14.6298 5.85071 14.8909 5.6962L16.3 4.76908C16.5611 4.61456 16.8741 4.66594 17.0307 4.9236C17.1872 5.18126 17.1351 5.49031 16.8741 5.64482L15.4649 6.57194C15.3608 6.62333 15.2564 6.62333 15.1519 6.62333Z" fill="#000"/>
<path fill-rule="evenodd" clip-rule="evenodd" d="M16.3661 4.87517L14.9546 5.80384C14.7666 5.91513 14.7171 6.13528 14.8333 6.33923C14.9281 6.42875 15.0488 6.49828 15.1518 6.49828C15.2565 6.49828 15.3309 6.49658 15.4032 6.46287L16.8103 5.53709C17.0024 5.42339 17.0499 5.19604 16.9238 4.98846C16.8092 4.79988 16.578 4.75116 16.3661 4.87517ZM17.1375 4.85865C16.9394 4.53264 16.5459 4.47823 16.2363 4.66147L14.8245 5.59017C14.4969 5.78602 14.441 6.17537 14.6275 6.48227L14.6355 6.49557L14.6466 6.50648C14.7593 6.61728 14.946 6.74828 15.1518 6.74828C15.1544 6.74828 15.1571 6.74828 15.1597 6.74828C15.2599 6.74833 15.3897 6.74839 15.5202 6.68398L15.5272 6.68057L16.9404 5.75075C17.268 5.5549 17.3239 5.16555 17.1375 4.85865Z" fill="#000"/>
<path d="M17.9178 11.9813H17.8133L16.1431 11.6722C15.8821 11.6208 15.6735 11.3632 15.7255 11.0541C15.7776 10.7965 16.0386 10.5906 16.3517 10.6419L18.0219 10.951C18.2829 11.0024 18.4915 11.26 18.4395 11.5691C18.3878 11.8267 18.1788 11.9813 17.9178 11.9813Z" fill="#000"/>
<path fill-rule="evenodd" clip-rule="evenodd" d="M15.8485 11.0767C15.8096 11.3142 15.9693 11.51 16.1667 11.5492L17.8249 11.8561H17.9179C18.1245 11.8561 18.2771 11.7388 18.3166 11.5462C18.3556 11.3086 18.1959 11.1128 17.9985 11.0736L16.3303 10.7649C16.0859 10.7254 15.8883 10.8852 15.8485 11.0767ZM15.6031 11.0292C15.6683 10.7065 15.9916 10.4559 16.372 10.5184L16.3745 10.5188L18.0461 10.8281C18.3699 10.8919 18.6267 11.2102 18.5628 11.5896L18.5621 11.5935C18.4976 11.9151 18.2326 12.1061 17.9179 12.1061H17.8019L16.119 11.7947C15.7952 11.7309 15.5384 11.4126 15.6023 11.0332L15.6031 11.0292Z" fill="#000"/>
<path d="M2.10476 15.2784C1.94822 15.2784 1.79168 15.1752 1.68721 15.0724C1.53067 14.8148 1.58273 14.5057 1.84374 14.3512L3.25292 13.4241C3.51394 13.2696 3.82702 13.321 3.98354 13.5786C4.14007 13.8363 4.08802 14.1453 3.82701 14.2999L2.41782 15.227C2.31371 15.2784 2.20924 15.2784 2.10476 15.2784Z" fill="#000"/>
<path fill-rule="evenodd" clip-rule="evenodd" d="M3.319 13.5302L1.90746 14.4589C1.71946 14.5702 1.66996 14.7903 1.78621 14.9943C1.88095 15.0838 2.00164 15.1533 2.10473 15.1533C2.20935 15.1533 2.2838 15.1516 2.35607 15.1179L3.76323 14.1921C3.9553 14.0784 4.00279 13.8511 3.87668 13.6435C3.76212 13.4549 3.53085 13.4062 3.319 13.5302ZM3.18921 13.3165C3.49874 13.1333 3.89229 13.1877 4.09034 13.5137C4.27678 13.8206 4.22092 14.2099 3.89332 14.4058L2.48004 15.3356L2.47311 15.339C2.34263 15.4034 2.21282 15.4034 2.1126 15.4033C2.10995 15.4033 2.10733 15.4033 2.10473 15.4033C1.89891 15.4033 1.71215 15.2723 1.59951 15.1615L1.58842 15.1506L1.58034 15.1373C1.39389 14.8304 1.44977 14.4411 1.77736 14.2452L3.18921 13.3165Z" fill="#000"/>
<path d="M10.7158 3.68691H10.6114C10.3503 3.63553 10.1418 3.37787 10.1938 3.06882L10.5069 1.4201C10.5589 1.16244 10.82 0.956527 11.133 1.00792C11.3941 1.0593 11.6026 1.31696 11.5506 1.62601L11.2375 3.27473C11.1855 3.53239 10.9765 3.68691 10.7158 3.68691Z" fill="#000"/>
<path fill-rule="evenodd" clip-rule="evenodd" d="M10.6296 1.44422L10.3169 3.09081C10.2782 3.32448 10.4317 3.51796 10.6245 3.56194H10.7159C10.9225 3.56194 11.0755 3.44422 11.1149 3.25068L11.4276 1.60407C11.4669 1.36672 11.3079 1.17082 11.1109 1.13097C10.8663 1.09187 10.6688 1.25235 10.6296 1.44422ZM10.3844 1.39537C10.4496 1.07273 10.773 0.822159 11.1533 0.884594L11.1573 0.885236C11.481 0.948978 11.7378 1.26737 11.6739 1.6468L11.6735 1.64936L11.3601 3.29952C11.2952 3.62089 11.0304 3.81194 10.7159 3.81194H10.5992L10.5873 3.80959C10.2635 3.74585 10.0067 3.42751 10.0706 3.04808L10.071 3.04552L10.3844 1.39537Z" fill="#000"/>
<path d="M2.47004 9.14777H2.36557L0.695348 8.83872C0.434331 8.78734 0.225736 8.52968 0.277794 8.22063C0.329851 7.96298 0.590869 7.75706 0.903943 7.80845L2.57416 8.1175C2.83518 8.16888 3.04377 8.42654 2.99171 8.73559C2.93966 8.99325 2.73106 9.14777 2.47004 9.14777Z" fill="#000"/>
<path fill-rule="evenodd" clip-rule="evenodd" d="M0.400784 8.24346C0.361874 8.48095 0.521509 8.67676 0.718912 8.71598L2.3771 9.0228H2.47011C2.67656 9.0228 2.82902 8.90566 2.86885 8.71285C2.90778 8.47535 2.74814 8.27952 2.55073 8.2403L0.882582 7.93164C0.63819 7.89214 0.440595 8.05196 0.400784 8.24346ZM0.155334 8.19591C0.22052 7.87327 0.543873 7.6227 0.924254 7.68513L0.926756 7.68554L2.59837 7.99487C2.92214 8.05861 3.17896 8.37695 3.11504 8.75638L3.11437 8.76039C3.04945 9.08171 2.78498 9.2728 2.47011 9.2728H2.35416L0.671265 8.96141C0.347495 8.89767 0.0906811 8.57933 0.154595 8.1999L0.155334 8.19591Z" fill="#000"/>
</svg>
