<svg width="37" height="32" viewBox="0 0 37 32" fill="none" xmlns="http://www.w3.org/2000/svg">
<path d="M33.0441 25.5887C33.1242 25.7043 33.2665 25.7754 33.4088 25.7754H36.0766C36.2454 25.7754 36.3967 25.6864 36.4678 25.5354C36.5479 25.3842 36.5301 25.2064 36.4324 25.073L18.6475 0.173512C18.4786 -0.0578375 18.0871 -0.0578375 17.9272 0.173512L0.142272 25.073C0.0443115 25.2064 0.0356834 25.3842 0.106841 25.5354C0.186936 25.6867 0.338191 25.7754 0.498075 25.7754H3.16585C3.30818 25.7754 3.44157 25.7043 3.53059 25.5887L5.38912 22.9653V29.3325L3.17418 29.3322C2.92527 29.3322 2.72965 29.5279 2.72965 29.7768V31.5552C2.72965 31.8041 2.92527 31.9997 3.17418 31.9997H4.95259C4.95259 31.9997 5.14821 31.9997 5.39712 31.9997H7.17554C7.42445 31.9997 7.62007 31.9997 7.62007 31.9997H12.9556C12.9556 31.9997 13.1512 31.9997 13.4002 31.9997H15.1786C15.4275 31.9997 15.6231 31.9997 15.6231 31.9997H20.9587V31.5552C20.9587 31.8041 21.1543 31.9997 21.4032 31.9997H23.1816C23.4305 31.9997 23.6261 31.8041 23.6261 31.5552V31.9997H28.9617V31.5552C28.9617 31.8041 29.1573 31.9997 29.4062 31.9997H31.1846C31.4335 31.9997 31.6292 31.8041 31.6292 31.5552V31.9997H33.4076C33.6565 31.9997 33.8521 31.8041 33.8521 31.5552V29.7768C33.8521 29.5279 33.6565 29.3322 33.4076 29.3322H31.1843V22.965L33.0441 25.5887ZM6.73062 31.1109H5.84126V31.9999H6.73062V31.1109ZM14.734 31.1109H13.8446V31.9999H14.734V31.1109ZM22.7373 31.1109H21.8479V31.9999H22.7373V31.1109ZM30.7406 31.1109H29.8513V31.9999H30.7406V31.1109ZM32.9639 30.2215V31.1109H3.61832V30.2215H32.9639ZM19.9543 7.10102L21.217 8.87944H15.3747L16.6374 7.10102H19.9543ZM17.2597 6.21166L18.2913 4.76221L19.323 6.21166H17.2597ZM21.8396 9.7688L23.1022 11.5472H13.4807L14.7434 9.7688H21.8396ZM23.7335 12.4366L24.9962 14.215H11.5948L12.8575 12.4366H23.7335ZM25.6188 15.1044L26.8815 16.8828H9.701L10.9637 15.1044H25.6188ZM27.5131 17.7721L28.7758 19.5506H7.81618L9.07888 17.7721H27.5131ZM29.3981 20.4399L30.2963 21.7026V22.2183H6.28632V21.7026L7.1846 20.4399H29.3981ZM23.1824 27.5539V25.7755H30.2963V27.5539H23.1824ZM30.2963 28.4433V29.3326H23.1824V28.4433H30.2963ZM23.1824 24.8861V23.1077H30.2963V24.8861H23.1824ZM22.293 23.1077V29.3326H18.7359V23.1077H22.293ZM17.8468 23.1077V29.3326H14.2897V23.1077H17.8468ZM13.4003 23.1077V24.8861H6.28632V23.1077H13.4003ZM13.4003 25.7755V27.5539H6.28632V25.7755H13.4003ZM13.4003 28.4433V29.3326H6.28632V28.4433H13.4003ZM18.6561 3.73047C18.4872 3.49912 18.0957 3.49912 17.9269 3.73047L2.94235 24.886H1.36851L18.2914 1.19608L35.2142 24.886H33.6404L18.6561 3.73047Z" fill="#000"/>
</svg>
