<svg width="43" height="32" viewBox="0 0 43 32" fill="none" xmlns="http://www.w3.org/2000/svg">
<path d="M41.5664 4.44668C41.434 3.87983 40.9483 3.48755 40.3301 3.48755H35.12C34.5459 3.48755 34.0162 3.92364 33.8837 4.4902L32.6035 10.2886C32.5151 10.6374 32.6035 11.0297 32.8683 11.335C33.0892 11.6403 33.4864 11.8146 33.8397 11.8146H36.7979V30.2561H36.003C35.5173 30.2561 35.12 30.6485 35.12 31.128C35.12 31.6076 35.5173 31.9999 36.003 31.9999H39.4909C39.9766 31.9999 40.3738 31.6076 40.3738 31.128C40.3738 30.6484 39.9765 30.2561 39.4909 30.2561H38.6519L38.6522 11.771H41.6104C42.0077 11.771 42.361 11.5967 42.5818 11.2914C42.8026 10.9861 42.891 10.5938 42.8466 10.245L41.5664 4.44668ZM34.5459 9.98327L35.5617 5.27479H39.8445L40.8599 9.98327H34.5459Z" fill="#000"/>
<path d="M29.1597 21.7984V16.4361C29.1597 14.8666 27.8795 13.5586 26.2456 13.5586H7.08347C5.49399 13.5586 4.16934 14.8228 4.16934 16.4361V21.7984C2.27094 22.4088 0.85791 24.1525 0.85791 26.2454V31.1282C0.85791 31.6078 1.25521 32.0001 1.74088 32.0001C2.22657 32.0001 2.62385 31.6078 2.62385 31.1282V29.646H30.5723V31.1282C30.5723 31.6078 30.9696 32.0001 31.4553 32.0001C31.9409 32.0001 32.3382 31.6078 32.3382 31.1282L32.3385 26.2454C32.471 24.1525 31.0583 22.4088 29.1596 21.7984H29.1597ZM5.97974 16.4361C5.97974 15.8257 6.46544 15.3462 7.08355 15.3462H26.2457C26.8638 15.3462 27.3495 15.8257 27.3495 16.4361V21.5804H25.5392V18.8337C25.5392 17.9618 24.7886 17.2207 23.9056 17.2207H19.1374C18.2544 17.2207 17.5038 17.9618 17.5038 18.8337V21.5804H15.826V18.8337C15.826 17.9618 15.0754 17.2207 14.1924 17.2207H9.42363C8.54066 17.2207 7.79007 17.9618 7.79007 18.8337V21.5804H5.97974V16.4361ZM23.729 18.9645V21.5366H19.3138V18.9645H23.729ZM14.0596 18.9645V21.5366H9.64439V18.9645H14.0596ZM30.6609 27.8583H2.71247V26.2453C2.71247 24.6322 4.03712 23.3243 5.67068 23.3243H27.7027C29.3363 23.3243 30.6609 24.6322 30.6609 26.2453V27.8583Z" fill="#000"/>
<path d="M9.73272 10.7683H23.6407C24.1264 10.7683 24.5237 10.376 24.5237 9.89645L24.524 0.871863C24.524 0.39228 24.1267 0 23.641 0H9.73303C9.24733 0 8.85006 0.392303 8.85006 0.871863V9.85285C8.80571 10.3762 9.20332 10.7685 9.73303 10.7685L9.73272 10.7683ZM15.9583 8.98076L18.3867 6.45213C19.2697 7.28055 20.2851 8.23969 21.08 8.98076H15.9583ZM10.6157 1.7874H22.7576V8.10889C21.963 7.36778 20.7264 6.19055 19.0045 4.57761C18.828 4.40336 18.6072 4.31608 18.3423 4.31608C18.1215 4.31608 17.8566 4.40336 17.7242 4.57761L13.4857 8.98084H10.616L10.6157 1.7874Z" fill="#000"/>
<path d="M14.7662 4.62102C14.7662 5.39163 14.1336 6.01628 13.3535 6.01628C12.573 6.01628 11.9404 5.39165 11.9404 4.62102C11.9404 3.85041 12.573 3.22607 13.3535 3.22607C14.1336 3.22607 14.7662 3.85041 14.7662 4.62102Z" fill="#000"/>
</svg>
